<svg width="726pt" height="280pt" viewBox="0 0 726 280">
<path fill="#000000" opacity="1.00" d=" M 35.54 0.00 L 68.27 0.00 C 74.72 0.60 81.24 1.22 87.66 0.00 L 91.18 0.00 C 92.31 1.86 93.82 3.65 93.98 5.91 C 94.68 11.91 94.76 17.97 94.72 24.01 C 94.54 27.56 94.67 31.52 92.30 34.45 C 89.61 35.27 86.76 34.99 84.00 35.03 C 68.94 34.69 53.87 34.75 38.81 34.76 C 38.81 35.57 38.81 37.19 38.81 38.00 C 45.24 38.08 51.67 37.86 58.10 38.03 C 59.57 38.05 61.75 38.22 61.99 40.07 C 62.28 44.70 61.75 49.36 62.16 53.99 C 62.33 59.02 63.56 63.98 63.42 69.02 C 62.15 71.30 59.49 72.33 56.98 72.29 C 49.92 72.44 42.86 72.66 35.80 73.03 C 35.96 88.05 37.04 103.07 36.65 118.10 C 36.40 120.24 36.60 122.98 34.73 124.45 C 29.52 125.31 24.21 125.07 18.96 125.48 C 13.69 125.62 8.38 126.46 3.12 125.68 C 1.03 125.52 0.47 123.33 0.00 121.67 L 0.00 114.89 C 1.01 95.24 3.89 75.70 3.85 56.01 C 4.07 40.64 3.96 25.26 4.64 9.91 C 4.81 8.11 4.75 6.18 5.60 4.54 C 8.12 2.29 11.64 1.58 14.90 1.26 C 21.77 0.60 28.66 0.40 35.54 0.00 M 10.81 7.82 C 10.62 9.77 10.41 11.71 10.16 13.65 C 11.10 11.87 11.82 9.32 14.23 9.15 C 16.38 8.53 17.89 10.46 19.35 11.67 C 20.15 9.82 21.00 7.46 23.29 7.12 C 25.39 6.51 26.81 8.69 28.39 9.64 C 45.14 8.79 62.34 4.05 78.84 9.21 C 81.69 9.92 85.63 11.32 85.18 14.99 C 84.19 18.18 82.00 22.00 78.13 21.77 C 66.39 22.37 54.74 24.20 42.97 24.24 C 37.69 24.26 32.41 24.49 27.14 24.75 C 27.03 32.33 27.10 39.92 27.16 47.51 C 33.85 47.17 40.43 45.97 47.02 44.93 C 49.40 44.36 52.35 45.48 52.71 48.15 C 53.44 50.62 51.18 52.26 49.53 53.59 C 48.47 55.07 47.69 57.11 45.74 57.61 C 39.71 59.37 33.38 59.64 27.16 60.25 C 27.20 77.87 27.21 95.49 26.56 113.10 C 26.58 115.27 25.84 117.32 25.02 119.29 C 26.89 119.09 28.75 118.91 30.62 118.72 C 30.94 104.79 30.19 90.86 29.93 76.94 C 29.92 74.30 29.36 71.72 29.17 69.11 C 30.02 66.62 32.96 67.04 35.04 66.98 C 42.47 67.12 49.87 66.32 57.29 66.25 C 56.51 58.85 55.97 51.44 55.83 44.00 C 49.18 43.96 42.54 44.13 35.90 43.95 C 33.37 44.08 32.99 40.91 32.84 39.05 C 32.79 35.87 32.32 32.21 34.37 29.51 C 35.72 28.61 37.45 28.84 38.99 28.72 C 55.45 28.68 71.92 28.86 88.39 29.01 C 89.11 21.39 88.71 13.74 88.07 6.13 C 81.38 6.92 74.65 6.26 67.94 6.06 C 48.89 6.02 29.76 5.51 10.81 7.82 M 9.53 70.57 C 8.42 87.05 6.26 103.47 5.95 120.01 C 10.52 120.06 15.08 119.93 19.63 119.75 C 18.08 117.81 17.60 115.45 17.83 113.01 C 16.08 113.55 14.14 114.89 12.34 113.71 C 10.61 112.83 10.10 110.85 10.16 109.06 C 9.97 96.23 9.86 83.40 9.53 70.57 Z" />
<path fill="#000000" opacity="1.00" d=" M 510.21 4.93 C 512.09 2.98 513.91 -0.06 517.10 1.31 C 524.38 3.23 531.91 1.16 539.24 2.50 C 540.66 2.69 542.60 3.28 542.52 5.09 C 542.78 10.75 541.74 16.46 542.86 22.09 C 543.39 24.30 540.63 24.90 539.03 24.96 C 531.34 25.62 523.60 25.85 515.88 25.73 C 513.16 25.96 510.54 23.65 510.63 20.89 C 510.33 15.58 510.21 10.25 510.21 4.93 M 516.19 7.31 C 516.13 8.92 516.05 10.53 515.97 12.15 C 518.75 8.25 523.87 8.99 528.03 8.54 C 524.08 8.19 520.11 7.94 516.19 7.31 M 535.35 7.99 C 534.97 9.37 535.48 9.86 536.88 9.45 C 537.26 8.06 536.75 7.57 535.35 7.99 M 521.76 17.86 C 519.49 18.35 517.77 16.66 516.24 15.29 C 516.39 16.78 516.53 18.27 516.67 19.76 C 523.17 19.77 529.69 19.69 536.19 19.30 C 536.27 17.39 536.39 15.48 536.55 13.57 C 532.52 17.11 526.79 17.14 521.76 17.86 Z" />
<path fill="#000000" opacity="1.00" d=" M 369.85 24.93 C 379.67 9.54 400.94 2.89 417.72 10.24 C 427.47 14.73 434.17 23.67 439.16 32.86 C 439.61 34.12 441.18 35.46 440.29 36.85 C 437.62 40.04 434.11 42.38 431.08 45.21 C 428.01 47.74 425.31 50.80 421.83 52.78 C 419.29 52.73 417.01 51.39 415.09 49.84 C 410.33 45.98 405.69 41.61 399.89 39.40 C 398.18 38.75 397.55 40.75 396.58 41.69 C 404.35 50.29 416.66 51.57 425.67 58.32 C 434.72 64.37 441.67 74.22 442.73 85.22 C 443.68 93.45 440.96 101.69 436.59 108.59 C 432.79 115.72 424.68 119.15 417.11 120.58 C 406.24 122.57 394.34 124.02 384.04 118.99 C 376.30 115.60 370.57 109.00 366.09 102.02 C 362.51 96.59 359.27 90.59 358.88 83.96 C 358.48 82.19 360.12 81.18 361.33 80.32 C 367.90 75.81 375.84 74.31 383.31 71.99 C 376.26 68.13 369.82 62.36 367.36 54.47 C 364.39 44.88 364.53 33.70 369.85 24.93 M 374.48 27.26 C 380.61 20.30 390.13 18.35 398.94 17.53 C 408.93 15.56 418.92 19.22 427.61 23.88 C 424.06 20.29 420.34 16.57 415.56 14.68 C 401.26 8.78 382.88 14.10 374.48 27.26 M 391.31 41.46 C 392.55 39.14 393.56 36.38 396.04 35.09 C 398.64 33.66 401.83 34.28 404.33 35.63 C 410.32 38.80 415.11 43.72 420.68 47.52 C 425.26 43.38 429.94 39.36 434.58 35.27 C 434.03 34.15 433.49 33.03 432.95 31.91 C 430.88 34.29 427.96 35.03 425.08 33.54 C 423.43 34.26 421.87 35.57 420.00 35.49 C 417.25 34.25 415.23 31.87 412.61 30.42 C 408.17 27.79 402.96 27.11 397.92 26.64 C 392.72 29.75 391.56 35.90 391.31 41.46 M 379.73 39.92 C 380.12 45.75 384.26 50.18 388.90 53.25 C 386.45 49.50 383.61 45.66 383.09 41.08 C 382.81 37.29 383.65 33.54 384.27 29.83 C 381.29 32.26 378.67 35.85 379.73 39.92 M 371.21 49.77 C 372.29 54.86 375.10 59.59 379.19 62.84 C 386.67 68.90 396.04 71.81 404.17 76.79 C 409.04 80.09 413.55 85.69 412.72 91.91 C 411.48 96.28 406.19 98.09 402.08 97.35 C 392.82 94.71 385.59 86.77 383.56 77.38 C 382.09 77.75 380.61 78.12 379.14 78.48 C 379.19 79.91 379.23 81.33 379.27 82.76 C 379.92 82.87 381.21 83.10 381.86 83.21 C 387.43 91.78 393.88 100.94 404.08 104.21 C 409.96 104.75 416.09 103.97 421.44 101.35 C 425.25 99.07 427.90 94.54 427.22 90.04 C 426.33 83.07 422.24 76.56 416.40 72.69 C 407.79 68.87 398.38 67.20 389.84 63.18 C 383.51 60.39 377.46 56.16 373.97 50.05 C 371.69 46.17 371.11 41.63 370.40 37.27 C 370.54 41.44 370.32 45.66 371.21 49.77 M 400.81 51.79 C 406.21 55.59 412.04 58.72 417.44 62.52 C 422.16 65.98 427.60 68.25 432.45 71.51 C 427.79 65.70 421.86 60.87 414.97 57.97 C 410.21 56.00 405.47 53.99 400.81 51.79 M 388.10 74.32 C 389.55 82.27 394.74 90.20 402.98 92.17 C 404.95 92.74 409.08 92.09 407.59 89.17 C 404.88 80.67 395.30 77.90 388.10 74.32 M 363.74 84.29 C 366.09 93.57 371.32 102.09 378.04 108.86 C 385.00 115.89 395.38 118.32 404.99 117.19 C 412.16 116.33 419.60 115.54 426.10 112.15 C 429.62 110.45 431.66 106.97 433.69 103.80 C 428.20 107.61 422.38 111.28 415.79 112.82 C 408.83 114.26 401.74 112.96 394.80 112.10 C 386.96 110.77 378.33 108.32 373.58 101.42 C 369.38 95.48 370.35 87.82 370.57 80.97 C 368.28 82.07 366.01 83.17 363.74 84.29 Z" />
<path fill="#000000" opacity="1.00" d=" M 458.98 15.96 C 458.63 13.21 461.10 10.41 463.94 10.80 C 472.66 10.96 481.40 11.19 490.13 11.16 C 492.51 11.22 493.24 13.98 493.11 15.94 C 493.09 24.80 492.66 33.65 492.38 42.51 C 495.97 42.60 499.63 42.15 503.19 42.80 C 505.29 43.68 504.97 46.19 505.08 48.05 C 505.10 55.38 505.04 62.71 505.19 70.04 C 505.05 71.91 505.59 74.41 503.71 75.58 C 500.11 75.98 496.48 75.70 492.87 75.74 C 493.52 87.17 492.48 98.61 493.10 110.03 C 492.97 112.67 495.78 116.07 492.79 117.89 C 488.59 118.70 484.28 118.37 480.03 118.50 C 473.81 118.42 467.48 118.84 461.37 117.53 C 458.94 116.89 459.37 114.03 459.26 112.12 C 459.22 99.93 459.26 87.74 459.25 75.55 C 455.62 74.90 449.82 76.21 448.66 71.50 C 447.72 64.39 447.66 57.18 447.49 50.01 C 447.65 48.58 447.15 46.69 448.36 45.62 C 451.75 43.45 455.87 43.30 459.70 42.55 C 459.65 33.68 458.95 24.83 458.98 15.96 M 472.28 17.03 C 473.07 20.62 473.82 24.23 474.51 27.84 C 474.77 24.13 474.59 20.18 476.70 16.93 C 475.22 16.97 473.75 17.00 472.28 17.03 M 482.32 17.11 C 484.36 20.42 483.39 24.32 483.21 27.95 C 482.69 35.88 482.79 43.82 482.98 51.76 C 486.97 51.32 490.95 50.10 494.97 50.47 C 498.78 51.52 498.88 56.17 496.41 58.64 C 496.10 60.60 496.40 63.16 494.35 64.28 C 491.11 66.16 487.34 66.75 483.74 67.55 C 484.17 78.72 484.99 89.90 484.83 101.08 C 484.99 104.13 482.07 105.67 479.37 105.51 C 478.64 106.74 478.11 108.14 477.00 109.09 C 474.47 110.31 470.84 108.89 470.58 105.91 C 469.22 93.51 467.94 81.05 467.90 68.56 C 463.05 68.40 458.18 67.78 453.34 68.31 C 456.30 69.99 459.78 69.23 463.00 69.73 C 465.36 70.28 465.20 73.07 465.25 74.96 C 465.21 87.43 465.22 99.90 465.23 112.38 C 472.53 112.60 479.83 112.56 487.13 112.26 C 486.63 99.48 487.52 86.68 486.63 73.92 C 486.50 72.55 486.48 70.66 488.20 70.31 C 491.79 69.67 495.47 70.07 499.10 70.01 C 499.09 62.84 499.11 55.66 499.09 48.49 C 495.43 48.43 491.71 48.84 488.10 48.14 C 486.09 47.18 486.32 44.83 486.32 42.98 C 486.66 34.42 487.01 25.87 487.18 17.31 C 485.55 17.25 483.93 17.19 482.32 17.11 M 465.28 25.26 C 464.97 32.15 466.06 39.08 465.38 45.95 C 465.15 46.31 464.68 47.05 464.45 47.42 C 461.04 48.99 457.09 48.96 453.44 49.77 C 453.45 51.76 453.46 53.76 453.47 55.75 C 458.01 54.21 462.86 54.25 467.59 53.77 C 467.40 44.23 466.88 34.67 465.28 25.26 Z" />
<path fill="#000000" opacity="1.00" d=" M 148.32 25.09 C 148.66 21.72 148.73 17.47 152.20 15.71 C 157.50 15.36 162.82 16.15 168.12 16.39 C 172.59 16.90 177.23 16.99 181.49 18.56 C 183.50 20.52 181.91 23.53 182.10 25.94 C 181.65 45.62 181.28 65.30 180.87 84.99 C 180.69 96.68 181.54 108.46 179.79 120.08 C 179.30 122.78 177.34 126.37 174.07 125.57 C 166.40 124.64 158.67 125.04 150.97 125.21 C 149.63 125.10 147.78 125.33 146.98 123.97 C 146.17 122.03 146.23 119.86 145.90 117.82 C 132.65 118.76 118.75 116.74 107.37 109.51 C 97.02 102.94 91.02 91.28 88.63 79.54 C 85.98 65.76 87.55 50.50 95.88 38.85 C 101.69 30.70 111.24 26.48 120.46 23.48 C 129.55 20.46 139.62 21.19 148.32 25.09 M 154.76 21.52 C 154.12 24.92 154.41 28.67 152.79 31.80 C 150.89 34.30 148.23 31.72 146.13 30.91 C 138.43 26.57 128.96 26.82 120.82 29.75 C 113.51 32.34 105.74 35.51 101.05 42.03 C 94.02 51.48 92.52 63.94 93.92 75.36 C 94.70 64.88 96.09 53.58 103.27 45.34 C 110.25 36.87 121.18 32.65 131.95 32.15 C 140.89 31.33 149.54 34.36 157.76 37.48 C 157.62 32.23 157.34 26.98 157.14 21.72 C 156.55 21.67 155.36 21.57 154.76 21.52 M 106.40 56.43 C 103.27 63.82 102.55 72.05 102.91 79.99 C 103.14 88.24 109.17 95.19 116.41 98.52 C 129.50 104.80 144.55 106.16 158.84 104.59 C 152.66 103.48 146.32 103.58 140.14 102.36 C 130.10 100.52 120.00 96.73 112.69 89.36 C 107.64 84.19 103.51 77.37 103.88 69.90 C 104.35 62.04 109.17 54.97 115.66 50.72 C 124.75 44.68 135.92 42.07 146.76 42.55 C 140.03 41.03 133.00 40.08 126.16 41.49 C 117.76 43.02 109.99 48.62 106.40 56.43 M 125.96 54.92 C 119.51 57.48 112.99 62.62 112.42 70.04 C 112.42 76.89 117.29 82.63 122.56 86.48 C 132.91 93.70 145.90 95.18 158.19 95.52 C 158.28 81.78 158.31 68.05 158.22 54.31 C 156.47 53.97 154.72 53.63 153.04 53.07 C 144.26 49.75 134.43 51.54 125.96 54.92 M 151.12 113.74 C 151.54 115.57 151.94 117.40 152.33 119.25 C 156.38 119.25 160.43 119.24 164.48 119.26 C 164.72 117.09 165.02 114.93 165.31 112.77 C 160.60 113.34 155.86 113.66 151.12 113.74 Z" />
<path fill="#000000" opacity="1.00" d=" M 324.27 25.11 C 324.63 21.74 324.70 17.56 328.10 15.71 C 336.43 15.55 344.80 16.33 353.06 17.43 C 354.87 17.89 357.44 17.72 358.33 19.74 C 357.59 41.44 357.34 63.25 356.84 85.00 C 356.67 96.70 357.49 108.47 355.76 120.09 C 355.26 122.78 353.32 126.37 350.05 125.57 C 342.72 124.71 335.34 124.96 327.99 125.21 C 326.31 125.10 324.08 125.55 322.94 123.99 C 322.17 122.03 322.19 119.87 321.88 117.82 C 308.64 118.75 294.78 116.75 283.41 109.56 C 276.49 105.23 271.47 98.43 268.19 91.05 C 267.38 98.22 264.58 104.89 262.76 111.81 C 261.72 114.93 263.56 118.95 260.96 121.40 C 252.62 121.06 244.28 120.15 235.92 120.69 C 233.28 121.17 230.79 118.61 231.02 116.04 C 232.71 100.49 236.19 84.85 234.38 69.15 C 233.82 66.66 233.65 62.31 230.06 62.78 C 224.96 62.86 222.50 68.31 221.36 72.53 C 218.04 86.49 220.48 100.90 220.61 115.04 C 220.69 117.38 218.11 118.67 216.12 119.01 C 208.78 120.03 201.34 119.61 193.95 120.10 C 192.09 120.08 190.08 120.48 188.32 119.70 C 186.01 117.83 186.10 114.66 185.97 111.98 C 185.33 87.27 187.25 62.60 188.22 37.93 C 188.16 35.19 189.28 31.98 192.19 31.14 C 198.85 28.66 206.13 28.94 213.13 29.02 C 215.02 28.95 216.82 29.56 218.48 30.42 C 227.93 25.92 238.92 25.53 248.95 28.11 C 257.79 30.47 264.63 37.83 267.65 46.31 C 271.27 37.31 278.83 30.38 287.76 26.79 C 299.01 21.19 312.67 19.53 324.27 25.11 M 329.37 30.55 C 328.98 32.15 327.05 33.68 325.49 32.54 C 321.75 30.87 318.18 28.63 314.05 28.05 C 304.40 26.28 294.78 29.88 286.31 34.23 C 277.76 38.43 272.47 47.37 270.67 56.48 C 270.32 61.67 270.87 66.90 270.32 72.10 C 270.87 62.86 272.75 53.16 278.82 45.84 C 285.79 37.07 296.95 32.63 307.94 32.15 C 316.88 31.33 325.52 34.37 333.74 37.48 C 333.59 32.23 333.31 26.99 333.11 21.74 C 332.52 21.68 331.33 21.56 330.74 21.50 C 330.31 24.52 330.11 27.59 329.37 30.55 M 222.58 34.63 C 228.87 34.09 235.42 34.07 241.28 36.78 C 252.76 41.51 261.36 52.21 263.70 64.38 C 263.75 60.26 264.49 56.01 263.20 52.00 C 261.42 45.12 257.37 38.32 250.73 35.22 C 241.90 31.17 231.70 32.16 222.58 34.63 M 194.50 36.65 C 194.35 37.19 194.05 38.27 193.90 38.80 C 196.30 38.33 199.57 37.23 201.17 39.84 C 202.46 42.78 202.16 46.15 202.62 49.28 C 202.76 45.85 202.63 42.39 203.15 38.98 C 203.40 36.36 206.59 34.72 208.92 35.89 C 210.92 36.51 211.26 38.80 212.02 40.46 C 213.02 39.68 214.03 38.90 215.05 38.12 C 214.27 37.08 213.49 36.04 212.71 35.00 C 206.60 34.84 200.41 34.88 194.50 36.65 M 282.73 55.65 C 279.27 63.19 278.54 71.74 278.88 79.94 C 279.08 88.21 285.13 95.19 292.39 98.53 C 305.46 104.80 320.51 106.15 334.79 104.60 C 328.92 103.51 322.91 103.59 317.04 102.53 C 307.12 100.82 297.13 97.29 289.65 90.33 C 285.07 85.90 281.13 80.37 280.09 73.97 C 278.70 65.24 283.49 56.49 290.52 51.51 C 299.75 44.84 311.45 42.12 322.73 42.51 C 315.97 41.05 308.93 40.07 302.08 41.50 C 293.97 42.97 286.49 48.28 282.73 55.65 M 214.84 49.31 C 220.65 47.03 226.76 44.90 233.10 45.33 C 237.36 45.45 241.32 47.15 245.27 48.57 C 236.69 41.53 222.76 40.90 214.84 49.31 M 192.07 114.03 C 199.63 113.81 207.21 113.95 214.75 113.31 C 214.10 100.74 212.72 88.03 214.65 75.50 C 215.77 69.18 217.83 62.15 223.59 58.54 C 227.41 56.49 232.66 55.88 236.25 58.71 C 239.79 62.08 240.24 67.30 240.71 71.89 C 241.47 86.25 239.23 100.55 237.16 114.71 C 243.52 114.35 249.89 114.77 256.25 115.00 C 256.29 114.36 256.39 113.09 256.44 112.45 C 253.66 110.95 251.70 108.36 252.71 105.07 C 250.05 106.66 245.63 105.64 245.65 102.03 C 246.67 94.04 248.98 86.19 248.94 78.06 C 249.00 71.30 248.50 63.61 243.43 58.56 C 239.06 53.83 231.93 53.43 225.97 54.43 C 219.40 55.58 214.24 60.22 210.42 65.43 C 210.14 78.92 210.46 92.41 210.47 105.89 C 210.54 109.54 206.65 110.39 203.75 109.93 C 202.07 110.80 200.31 112.94 198.27 111.89 C 196.20 111.23 195.14 109.15 195.18 107.09 C 193.93 88.30 194.53 69.44 193.47 50.64 C 192.69 71.76 191.19 92.89 192.07 114.03 M 296.66 57.66 C 291.50 60.87 287.14 66.97 288.72 73.29 C 290.79 80.95 297.31 86.61 304.31 89.81 C 313.59 94.31 324.00 95.16 334.16 95.52 C 334.24 81.78 334.29 68.05 334.19 54.31 C 329.71 53.72 325.61 51.41 321.05 51.37 C 312.56 51.07 303.91 53.22 296.66 57.66 M 327.09 113.74 C 327.51 115.57 327.91 117.41 328.30 119.25 C 332.35 119.24 336.40 119.24 340.46 119.26 C 340.69 117.09 340.97 114.93 341.27 112.77 C 336.56 113.33 331.83 113.65 327.09 113.74 Z" />
<path fill="#000000" opacity="1.00" d=" M 571.58 25.48 C 583.47 18.58 599.02 20.12 610.12 27.87 C 616.64 32.59 622.83 37.84 628.06 43.99 C 629.32 45.62 631.67 46.66 631.85 48.93 C 631.13 50.14 630.02 51.05 628.92 51.89 C 623.21 56.19 617.02 59.89 611.77 64.79 C 610.23 66.16 608.28 68.06 606.04 67.00 C 602.08 64.99 598.60 61.83 594.09 61.05 C 588.88 60.10 582.37 61.81 579.99 66.98 C 576.89 73.62 578.81 81.51 582.61 87.45 C 584.12 89.78 586.81 92.34 589.85 91.22 C 594.35 89.15 596.21 84.21 598.10 79.99 C 598.99 77.69 601.18 75.25 603.90 75.91 C 613.19 77.22 622.32 80.19 630.73 84.31 C 633.16 91.46 629.72 98.61 627.36 105.28 C 623.58 115.07 616.09 124.86 605.03 126.42 C 591.37 127.86 576.71 126.53 564.76 119.24 C 555.71 114.05 548.47 105.66 545.18 95.71 C 544.56 94.44 544.47 91.98 542.49 92.41 L 543.84 93.11 C 543.61 103.05 543.43 113.01 542.46 122.91 C 542.47 124.54 541.34 125.71 540.30 126.80 C 529.91 125.42 519.36 126.87 508.95 126.07 C 507.02 125.73 507.39 123.16 507.03 121.71 C 507.63 121.33 508.82 120.56 509.41 120.18 C 509.41 92.43 509.36 64.68 509.43 36.94 C 509.25 34.05 512.21 31.58 514.99 31.77 C 522.67 31.71 530.37 31.59 538.06 31.52 C 539.39 31.71 541.87 31.35 542.11 33.20 C 544.53 43.50 543.63 54.22 543.38 64.70 C 547.00 48.64 557.07 33.58 571.58 25.48 M 583.43 27.53 C 572.00 29.67 562.76 38.15 556.70 47.71 C 550.06 58.62 546.47 71.75 548.22 84.53 C 549.86 94.91 554.93 105.14 563.59 111.39 C 574.99 119.99 590.02 122.22 603.91 120.49 C 608.64 120.01 612.77 117.18 615.72 113.57 C 621.53 106.38 624.06 97.26 626.13 88.42 C 619.00 85.40 611.61 82.90 603.94 81.72 C 601.90 86.18 599.83 90.83 596.16 94.21 C 593.11 97.12 588.32 98.43 584.40 96.54 C 579.04 93.97 575.83 88.45 574.04 83.00 C 571.61 75.97 571.80 67.62 576.33 61.47 C 579.99 56.21 586.87 54.18 593.02 54.98 C 598.22 55.32 602.85 57.90 607.13 60.69 C 612.38 56.19 618.03 52.20 623.72 48.27 C 619.50 42.85 614.27 38.31 608.78 34.23 C 601.56 28.98 592.38 25.82 583.43 27.53 M 515.43 37.72 C 515.37 39.34 515.30 40.97 515.23 42.59 C 517.43 41.47 520.52 40.39 522.25 42.92 C 523.73 45.81 523.15 49.29 523.55 52.44 C 524.03 48.58 523.93 44.62 524.80 40.81 C 525.94 37.08 532.05 37.18 532.89 41.06 C 533.31 46.67 532.28 52.28 532.09 57.90 C 531.44 73.23 531.62 88.65 533.53 103.90 C 533.86 107.59 534.76 111.29 534.41 115.00 C 533.64 119.06 528.49 117.21 526.49 120.09 C 529.89 120.28 533.31 120.26 536.73 120.25 C 538.84 95.87 537.29 71.41 537.69 47.00 C 537.66 43.73 537.32 40.48 536.88 37.25 C 529.73 37.39 522.58 37.37 515.43 37.72 M 515.40 120.24 C 517.12 120.26 518.84 120.28 520.57 120.32 C 518.98 115.75 519.06 110.87 518.63 106.11 C 517.42 91.23 516.53 76.33 515.43 61.44 C 515.30 81.04 515.38 100.64 515.40 120.24 Z" />
<path fill="#000000" opacity="1.00" d=" M 569.16 40.18 C 574.65 34.58 582.16 30.87 590.03 30.38 C 599.07 30.08 608.04 34.38 613.75 41.33 C 616.26 44.67 612.04 49.58 608.39 47.58 C 604.20 44.81 600.66 40.79 595.56 39.66 C 589.25 37.75 582.81 40.44 577.70 44.05 C 584.54 41.45 592.49 39.63 599.52 42.51 C 602.86 44.25 601.47 49.66 597.96 50.21 C 594.16 50.33 590.30 49.29 586.57 50.36 C 580.30 52.05 574.61 55.54 569.82 59.86 C 565.40 63.89 562.56 70.01 563.75 76.04 C 565.25 85.78 573.57 92.67 581.77 97.10 C 587.76 100.06 595.46 102.45 601.60 98.61 C 605.01 96.68 605.81 92.64 607.54 89.46 C 608.57 87.47 611.35 86.61 613.32 87.71 C 614.37 88.65 614.97 89.95 615.76 91.10 C 617.77 91.82 620.70 92.32 620.92 94.98 C 620.89 102.61 617.16 110.48 610.46 114.46 C 601.92 119.59 591.17 119.24 582.03 115.98 C 573.44 112.81 565.09 107.96 559.56 100.50 C 552.46 90.68 551.58 77.60 554.40 66.12 C 557.17 56.49 561.93 47.23 569.16 40.18 Z" />
<path fill="#000000" opacity="1.00" d=" M 131.18 54.26 C 138.87 51.45 145.76 56.56 152.43 59.53 C 154.17 68.18 153.45 77.42 150.83 85.83 C 148.10 88.03 144.28 87.36 141.04 87.22 C 134.37 86.91 127.52 84.97 122.50 80.39 C 117.79 76.09 116.88 68.44 120.10 63.01 C 122.44 58.76 126.65 55.79 131.18 54.26 M 125.82 64.96 C 123.59 68.09 123.37 72.91 126.32 75.67 C 131.48 80.73 139.09 81.46 145.96 81.53 C 147.04 75.93 147.39 70.23 147.25 64.53 C 143.74 61.79 139.61 59.11 134.98 59.38 C 131.37 59.94 127.93 61.97 125.82 64.96 Z" />
<path fill="#000000" opacity="1.00" d=" M 307.11 54.27 C 311.24 53.03 315.87 53.29 319.73 55.30 C 322.21 56.60 324.69 57.90 327.30 58.95 C 328.77 59.19 328.71 60.75 328.92 61.90 C 329.81 69.30 329.20 76.89 327.42 84.12 C 327.19 86.77 324.22 87.23 322.10 87.40 C 314.02 87.47 305.31 86.31 298.97 80.85 C 293.87 76.63 292.72 68.62 296.08 63.00 C 298.41 58.76 302.60 55.81 307.11 54.27 M 301.86 64.85 C 299.57 68.01 299.30 72.92 302.33 75.71 C 307.50 80.73 315.08 81.47 321.93 81.53 C 323.02 75.86 323.40 70.10 323.15 64.34 C 319.57 61.83 315.56 59.10 310.99 59.37 C 307.41 59.91 304.00 61.92 301.86 64.85 Z" />
<path fill="#000000" opacity="1.00" d=" M 696.35 151.33 C 698.13 150.63 700.10 151.51 701.95 151.67 C 709.15 153.23 716.69 150.72 723.80 153.01 C 726.42 155.13 724.73 159.09 725.00 162.00 C 724.30 165.95 726.01 170.06 725.11 173.85 C 718.85 176.32 711.66 175.13 705.02 175.75 C 701.15 175.50 695.51 177.14 693.51 172.64 C 692.79 167.44 692.90 162.14 692.80 156.89 C 692.61 154.47 694.66 152.73 696.35 151.33 M 698.68 157.31 C 698.74 159.01 698.79 160.71 698.87 162.41 C 699.34 161.58 699.82 160.76 700.30 159.94 C 703.59 159.03 706.99 158.76 710.38 158.47 C 706.47 158.18 702.56 157.92 698.68 157.31 M 705.54 167.75 C 702.94 168.47 700.60 167.21 698.84 165.38 C 698.98 166.84 699.12 168.31 699.26 169.77 C 705.76 169.76 712.26 169.66 718.75 169.33 C 718.87 167.48 718.98 165.63 719.15 163.79 C 715.26 166.74 710.19 167.07 705.54 167.75 Z" />
<path fill="#000000" opacity="1.00" d=" M 103.81 157.83 C 108.00 156.07 112.42 154.68 116.97 154.35 C 120.11 154.13 122.87 155.96 125.91 156.39 C 132.96 157.50 139.99 155.70 147.04 155.58 C 157.34 155.44 168.04 158.09 176.06 164.83 C 184.60 170.85 189.27 181.57 188.27 191.92 C 188.20 197.72 185.66 203.02 183.14 208.12 C 200.07 218.36 206.00 242.50 196.86 259.80 C 192.66 267.59 184.95 273.22 176.45 275.49 C 163.57 278.38 150.18 277.78 137.31 275.13 C 135.70 277.15 133.90 279.65 131.00 279.56 C 123.63 279.85 116.16 280.16 108.86 278.88 C 105.57 278.64 104.32 274.90 104.29 272.09 C 102.03 241.42 106.43 210.72 104.42 180.04 C 103.87 173.60 103.88 166.98 101.64 160.84 C 100.84 159.30 102.66 158.30 103.81 157.83 M 117.47 159.70 C 120.64 162.37 120.55 166.60 120.47 170.37 C 122.78 167.22 126.67 166.15 130.26 165.20 C 141.80 162.44 154.58 163.00 165.08 168.89 C 172.19 172.79 176.51 181.06 175.71 189.13 C 174.79 198.70 169.71 207.47 163.00 214.18 C 169.48 215.20 175.93 217.63 180.84 222.10 C 186.91 227.68 189.83 236.01 190.30 244.09 C 190.62 250.46 187.84 256.90 182.72 260.77 C 174.22 267.64 163.10 269.24 152.67 271.03 C 162.86 271.79 173.94 271.45 182.97 266.13 C 190.87 261.35 195.13 252.03 195.14 242.99 C 195.19 233.53 191.94 223.70 185.08 217.00 C 182.56 214.36 178.53 213.38 176.68 210.10 C 177.32 204.79 181.13 200.44 181.76 195.09 C 183.91 185.60 180.35 175.18 172.51 169.33 C 163.17 162.82 151.27 160.33 140.04 161.85 C 132.52 162.56 124.16 164.27 117.47 159.70 M 108.55 162.50 C 114.30 199.23 107.45 236.41 110.38 273.30 C 117.26 273.94 124.18 273.82 131.07 273.50 C 131.02 273.06 130.92 272.17 130.87 271.73 C 126.72 271.33 122.42 271.10 118.56 269.36 C 116.17 268.22 116.16 265.25 116.10 262.99 C 115.75 244.27 112.72 225.71 112.63 206.98 C 112.37 193.64 112.58 180.27 111.69 166.94 C 111.40 164.87 112.11 162.90 112.90 161.02 C 111.46 161.54 110.00 162.02 108.55 162.50 M 129.28 174.65 C 132.85 174.02 136.34 172.86 139.98 172.75 C 147.75 172.76 155.96 175.91 160.37 182.57 C 163.53 187.20 163.82 192.98 164.38 198.37 C 166.08 193.59 168.11 188.38 166.53 183.27 C 165.24 179.02 161.32 176.24 157.34 174.72 C 148.33 171.51 138.32 171.55 129.28 174.65 M 120.73 173.53 C 120.90 175.97 121.09 178.41 121.31 180.84 C 122.05 179.23 122.76 177.61 123.46 175.98 C 122.55 175.17 121.64 174.35 120.73 173.53 M 131.44 183.51 C 139.39 181.37 148.12 183.47 154.38 188.78 C 152.42 186.35 150.44 183.67 147.33 182.67 C 142.16 180.65 136.53 181.84 131.44 183.51 M 121.06 183.61 C 121.14 192.93 121.15 202.25 121.40 211.56 C 122.64 211.32 123.88 211.06 125.12 210.82 C 125.10 202.54 124.78 194.26 123.82 186.04 C 122.89 185.23 121.97 184.42 121.06 183.61 M 137.83 188.44 C 138.07 192.32 138.34 196.19 138.60 200.07 C 141.84 199.05 145.25 198.08 147.89 195.82 C 148.92 194.93 150.02 193.48 148.93 192.18 C 146.05 189.28 141.62 189.10 137.83 188.44 M 133.72 206.60 C 133.74 207.14 133.79 208.21 133.81 208.75 C 140.49 207.08 147.22 204.86 152.84 200.79 C 154.89 199.44 155.46 196.95 156.03 194.73 C 151.94 202.94 142.41 206.45 133.72 206.60 M 121.70 219.91 C 121.79 221.11 121.88 222.31 121.97 223.51 C 123.04 223.18 124.10 222.85 125.17 222.53 C 125.10 221.86 124.95 220.53 124.88 219.86 C 123.82 219.79 122.76 219.89 121.70 219.91 M 139.44 228.79 C 147.00 228.52 154.82 227.75 162.15 230.13 C 167.31 231.75 171.44 236.58 171.91 242.02 C 172.22 245.65 169.20 248.62 165.92 249.58 C 160.18 251.28 154.09 250.74 148.22 250.21 C 143.25 249.62 137.81 249.47 133.77 246.10 C 133.61 245.48 133.29 244.24 133.14 243.62 C 133.00 246.32 132.92 249.03 132.85 251.74 C 141.22 252.61 149.63 253.14 158.05 252.91 C 162.58 252.68 167.40 251.94 171.10 249.10 C 173.86 246.99 175.32 243.37 174.60 239.94 C 172.85 231.69 165.54 224.78 157.05 224.03 C 150.77 223.01 144.59 225.35 139.44 228.79 M 122.85 234.37 C 123.25 239.08 123.78 243.79 124.25 248.49 C 124.20 242.59 124.93 236.67 124.25 230.79 C 123.29 231.76 122.54 232.96 122.85 234.37 M 138.43 235.03 C 138.64 237.60 138.83 240.17 139.03 242.75 C 145.94 244.29 153.05 244.94 160.13 244.73 C 162.35 244.72 164.40 243.78 166.43 242.97 C 165.56 240.07 163.98 237.12 160.93 236.12 C 153.74 233.49 145.89 234.32 138.43 235.03 M 130.37 263.06 C 138.61 263.56 146.87 262.92 155.03 261.75 C 147.56 261.41 140.08 261.08 132.65 260.23 C 131.89 261.18 131.13 262.12 130.37 263.06 Z" />
<path fill="#000000" opacity="1.00" d=" M 661.22 154.26 C 668.48 153.37 675.86 153.72 683.12 154.47 C 684.66 154.78 686.87 154.62 687.48 156.46 C 688.36 157.94 687.00 159.47 686.56 160.86 C 686.51 169.90 687.42 178.92 687.21 187.96 C 686.69 212.31 685.58 236.67 686.21 261.03 C 686.27 264.04 686.59 267.07 686.30 270.09 C 685.70 272.37 682.96 272.36 681.08 272.49 C 673.38 272.73 665.67 272.95 657.98 272.62 C 656.37 272.53 653.91 272.09 653.70 270.17 C 653.93 233.08 654.95 195.99 655.17 158.89 C 654.75 155.43 658.65 154.73 661.22 154.26 M 661.09 160.32 C 661.05 195.79 659.81 231.25 659.75 266.72 C 662.21 266.74 664.66 266.77 667.13 266.83 C 665.99 263.56 666.13 260.10 666.24 256.71 C 664.71 255.16 662.74 253.50 663.27 251.04 C 665.85 220.77 662.50 190.37 664.20 160.06 C 663.42 160.13 661.87 160.26 661.09 160.32 M 676.66 160.00 C 677.81 161.41 679.02 162.93 678.90 164.88 C 679.41 177.31 680.41 189.75 679.86 202.20 C 678.58 218.81 676.31 235.34 675.24 251.97 C 674.90 256.84 675.15 261.76 674.16 266.57 C 676.21 266.52 678.28 266.49 680.35 266.47 C 679.58 241.32 680.47 216.18 681.18 191.04 C 681.57 180.80 680.63 170.58 680.49 160.35 C 679.20 160.24 677.93 160.12 676.66 160.00 Z" />
<path fill="#000000" opacity="1.00" d=" M 308.00 167.07 C 316.69 161.96 327.05 159.45 337.08 161.04 C 347.26 162.40 356.41 168.26 363.03 175.95 C 371.87 186.42 376.88 199.89 377.72 213.52 C 381.53 198.19 391.16 183.87 404.95 175.87 C 414.98 169.81 427.91 169.63 438.42 174.59 C 449.15 179.92 457.51 188.84 465.55 197.50 C 466.72 199.20 464.67 200.41 463.59 201.42 C 457.72 205.95 451.29 209.75 445.84 214.81 C 444.28 216.18 442.32 218.10 440.07 216.97 C 436.11 214.92 432.59 211.78 428.06 211.03 C 422.88 210.13 416.44 211.84 414.08 216.97 C 410.99 223.58 412.88 231.47 416.67 237.38 C 418.17 239.72 420.82 242.31 423.86 241.25 C 428.38 239.27 430.23 234.33 432.12 230.15 C 433.01 227.80 435.18 225.23 437.98 225.91 C 447.06 226.97 455.65 230.36 464.10 233.70 C 462.27 216.26 468.79 198.43 480.67 185.68 C 486.78 178.95 494.75 173.59 503.74 171.70 C 515.20 169.43 527.29 173.29 536.06 180.83 C 542.56 185.64 547.96 191.65 553.48 197.50 C 554.61 199.19 552.56 200.46 551.47 201.46 C 545.39 206.10 538.75 210.04 533.17 215.31 C 531.69 216.84 529.35 218.07 527.35 216.68 C 523.46 214.39 519.72 211.39 515.08 210.89 C 510.13 210.35 504.19 212.12 501.99 216.99 C 498.89 223.61 500.81 231.50 504.59 237.43 C 506.11 239.76 508.78 242.33 511.82 241.23 C 516.06 239.31 518.02 234.76 519.76 230.74 C 520.67 228.18 522.87 225.16 525.97 225.92 C 535.23 227.23 544.30 230.21 552.70 234.27 C 553.55 237.42 554.06 240.82 553.06 244.01 C 550.53 253.35 547.11 262.98 540.01 269.88 C 535.55 274.36 529.26 276.69 522.99 276.83 C 510.59 277.39 497.54 275.91 486.78 269.25 C 476.26 263.34 468.58 252.95 465.73 241.25 C 463.52 250.99 460.24 260.96 453.44 268.52 C 449.30 273.18 443.39 276.19 437.17 276.67 C 422.42 277.86 406.61 275.61 394.57 266.42 C 383.96 258.90 377.75 246.37 376.32 233.63 C 373.48 245.70 366.27 257.05 355.33 263.26 C 345.29 269.09 333.22 269.61 321.93 268.65 C 310.99 267.28 299.10 265.22 290.95 257.13 C 280.98 247.72 277.96 233.28 278.21 220.06 C 278.09 216.93 279.28 213.72 278.47 210.65 C 277.83 214.65 273.47 214.74 270.43 215.68 C 264.23 217.08 258.38 219.74 252.13 220.90 C 249.82 219.69 248.39 217.27 245.99 216.19 C 241.98 216.89 240.62 221.39 240.11 224.87 C 238.44 237.29 241.65 249.65 241.76 262.06 C 242.13 265.16 239.35 267.53 236.90 268.80 C 227.25 270.50 217.41 270.67 207.65 271.10 C 207.28 270.04 206.69 269.03 206.63 267.90 C 206.37 251.24 204.93 234.62 204.61 217.96 C 204.87 207.70 204.37 197.39 202.68 187.26 C 202.52 185.61 201.02 183.01 203.22 182.12 C 211.33 178.73 220.33 177.66 229.07 177.90 C 231.36 177.63 232.45 179.69 233.54 181.29 C 241.06 177.38 250.37 175.99 258.21 179.80 C 270.14 184.84 277.50 197.29 279.04 209.80 C 279.20 209.87 279.52 210.00 279.69 210.06 C 279.44 205.15 281.38 200.50 283.01 195.96 C 287.72 183.93 295.84 172.38 308.00 167.07 M 349.07 171.73 C 348.61 172.31 347.68 173.46 347.22 174.04 C 353.91 177.64 359.71 183.09 363.04 190.00 C 368.71 201.41 368.77 214.72 366.82 227.05 C 364.75 237.86 359.69 249.09 349.83 254.85 C 339.18 260.54 326.49 259.41 315.10 256.91 C 301.57 253.81 289.73 243.99 284.89 230.88 C 286.00 239.44 289.61 247.92 296.14 253.74 C 301.72 259.05 309.58 260.81 316.97 261.89 C 325.25 262.91 333.73 263.63 341.98 261.99 C 352.38 259.86 361.26 252.53 366.28 243.31 C 371.48 233.80 373.04 222.58 371.71 211.90 C 369.66 196.36 362.84 180.33 349.07 171.73 M 295.81 196.60 C 298.92 192.83 301.52 188.49 305.62 185.66 C 310.19 182.36 315.59 180.44 321.12 179.46 C 322.46 178.17 323.88 176.95 325.34 175.77 C 325.21 175.32 324.94 174.43 324.81 173.98 C 312.09 176.16 301.40 185.15 295.81 196.60 M 417.44 177.55 C 405.75 179.77 396.41 188.58 390.34 198.42 C 384.04 209.19 380.60 222.00 382.30 234.48 C 383.91 244.85 388.99 255.05 397.61 261.33 C 409.02 269.99 424.14 272.23 438.07 270.48 C 442.22 270.04 445.95 267.76 448.76 264.75 C 455.33 257.47 458.04 247.74 460.22 238.42 C 453.09 235.41 445.70 232.90 438.03 231.72 C 435.91 236.40 433.70 241.30 429.70 244.69 C 426.48 247.47 421.56 248.38 417.78 246.19 C 411.96 242.88 408.81 236.37 407.32 230.08 C 405.54 223.14 406.81 215.14 411.80 209.80 C 416.17 205.18 423.13 204.06 429.17 205.27 C 433.62 205.93 437.49 208.36 441.25 210.69 C 446.48 206.18 452.13 202.19 457.81 198.27 C 453.76 193.01 448.68 188.67 443.44 184.63 C 436.08 179.14 426.66 175.75 417.44 177.55 M 505.43 177.53 C 493.75 179.72 484.37 188.50 478.31 198.34 C 471.84 209.31 468.37 222.43 470.32 235.15 C 472.04 245.05 476.84 254.81 485.01 260.94 C 496.44 269.90 511.77 272.24 525.87 270.50 C 530.59 270.03 534.72 267.22 537.67 263.62 C 543.52 256.43 546.05 247.28 548.13 238.42 C 541.00 235.40 533.61 232.90 525.94 231.72 C 523.72 236.57 521.44 241.71 517.12 245.08 C 513.76 247.71 508.82 248.28 505.17 245.90 C 499.37 242.26 496.35 235.54 495.02 229.05 C 493.48 222.14 495.09 214.25 500.29 209.22 C 504.72 205.07 511.30 204.13 517.09 205.27 C 521.53 205.93 525.40 208.35 529.13 210.69 C 534.38 206.19 540.03 202.20 545.72 198.27 C 541.50 192.84 536.26 188.30 530.77 184.22 C 523.54 178.98 514.38 175.83 505.43 177.53 M 333.04 178.21 C 337.19 181.26 340.64 185.11 344.32 188.68 C 347.52 191.83 350.77 195.03 353.02 198.96 C 358.65 208.46 358.74 220.87 353.52 230.56 C 348.53 239.92 339.81 246.95 329.85 250.44 C 335.58 250.23 341.79 250.08 346.65 246.65 C 352.39 242.71 355.32 236.01 357.32 229.58 C 360.19 218.59 360.20 206.58 356.15 195.88 C 352.26 186.33 342.81 180.37 333.04 178.21 M 216.19 184.48 C 218.84 185.99 221.43 187.61 224.21 188.87 C 226.19 189.64 226.00 192.14 226.63 193.84 C 233.15 189.33 241.11 186.87 249.05 187.12 C 254.75 187.27 260.21 189.77 264.31 193.70 C 266.01 195.34 268.47 197.17 267.87 199.88 C 267.46 202.49 264.66 203.24 262.42 203.40 C 262.80 206.49 260.76 210.46 257.11 209.40 C 253.63 207.48 252.50 202.96 248.76 201.35 C 242.41 198.55 234.99 200.77 229.32 204.16 C 226.51 205.43 227.81 208.72 227.89 211.05 C 229.07 223.68 228.92 236.40 230.40 248.99 C 230.73 252.27 227.41 253.63 224.72 253.79 C 224.52 256.11 225.14 259.25 222.57 260.50 C 219.58 262.63 215.56 259.47 216.00 256.08 C 214.88 234.05 213.82 212.00 212.38 189.98 C 211.91 187.52 213.98 185.99 215.75 184.78 C 213.51 185.38 211.23 185.84 208.96 186.29 C 209.49 193.85 210.62 201.38 210.63 208.97 C 210.32 227.66 212.01 246.29 212.69 264.95 C 220.45 264.89 228.16 264.10 235.82 262.96 C 235.94 249.69 232.19 236.48 234.28 223.22 C 235.11 217.96 238.07 212.38 243.43 210.67 C 247.44 209.31 251.12 212.08 254.04 214.50 C 260.33 212.60 266.57 210.51 272.90 208.73 C 270.79 197.03 262.28 185.41 249.90 183.74 C 243.26 182.48 237.48 186.36 231.66 188.76 C 229.19 188.34 228.47 185.58 227.30 183.75 C 223.60 184.08 219.90 184.40 216.19 184.48 M 318.50 188.76 C 306.10 192.24 299.39 205.79 299.61 217.97 C 299.57 226.96 303.34 237.14 312.03 241.05 C 319.28 244.62 328.02 242.79 334.61 238.60 C 344.07 232.67 350.78 221.09 348.20 209.77 C 345.98 200.50 337.76 194.87 331.61 188.28 C 327.28 187.67 322.80 188.01 318.50 188.76 Z" />
<path fill="#000000" opacity="1.00" d=" M 596.42 161.64 C 606.84 159.21 618.30 160.93 627.30 166.82 C 640.47 175.24 648.57 190.01 651.42 205.12 C 654.14 218.42 653.14 232.76 646.95 244.99 C 641.24 257.11 629.45 266.15 616.17 268.17 C 603.54 270.05 590.45 268.81 578.35 264.77 C 567.43 261.29 559.10 251.78 555.84 240.95 C 551.38 226.79 552.23 211.16 557.28 197.27 C 561.65 185.62 568.98 174.22 580.30 168.34 C 585.49 165.70 590.60 162.68 596.42 161.64 M 621.97 174.02 C 628.24 177.45 633.82 182.37 637.17 188.77 C 643.34 200.11 643.58 213.62 641.77 226.11 C 639.80 237.19 634.81 248.83 624.73 254.79 C 613.85 260.64 600.86 259.40 589.24 256.76 C 575.86 253.52 564.42 243.64 559.51 230.74 C 560.86 239.14 564.13 247.60 570.57 253.41 C 576.03 258.84 583.85 260.70 591.21 261.82 C 599.72 262.88 608.45 263.68 616.93 261.95 C 628.10 259.62 637.41 251.29 642.20 241.09 C 647.77 229.29 648.16 215.51 644.75 203.03 C 641.73 190.57 634.90 178.64 623.83 171.72 C 623.37 172.29 622.43 173.44 621.97 174.02 M 594.94 175.16 C 581.76 179.00 572.03 190.49 567.86 203.25 C 569.87 198.95 571.78 194.51 574.96 190.91 C 580.01 184.39 587.95 180.83 595.91 179.44 C 597.39 178.06 598.94 176.75 600.53 175.49 C 599.23 173.37 596.77 174.82 594.94 175.16 M 608.01 178.23 C 612.40 181.74 616.20 185.88 620.22 189.78 C 623.44 192.94 626.52 196.34 628.58 200.39 C 633.40 209.61 633.25 221.15 628.42 230.33 C 623.45 239.79 614.70 246.88 604.69 250.45 C 610.45 250.21 616.72 250.06 621.58 246.54 C 627.15 242.66 630.04 236.13 632.01 229.85 C 634.99 218.85 634.98 206.80 631.01 196.06 C 627.19 186.48 617.76 180.47 608.01 178.23 M 593.44 188.72 C 586.86 190.41 581.53 195.43 578.39 201.32 C 574.05 209.68 573.08 219.85 576.21 228.77 C 578.22 234.55 582.54 239.82 588.51 241.72 C 594.50 244.16 601.35 242.77 606.97 239.98 C 615.89 235.34 622.95 226.26 623.49 216.00 C 623.82 211.42 622.53 206.82 620.01 203.00 C 617.23 197.94 612.24 194.75 608.59 190.41 C 607.55 189.48 606.67 187.89 605.08 188.03 C 601.20 187.93 597.26 187.98 593.44 188.72 Z" />
<path fill="#000000" opacity="1.00" d=" M 395.65 199.71 C 400.80 191.39 408.38 183.97 418.06 181.40 C 427.14 178.68 437.25 181.58 444.28 187.72 C 446.11 189.41 448.72 191.15 448.52 193.98 C 448.55 197.18 444.25 199.24 441.80 197.16 C 437.81 194.14 434.00 190.44 428.89 189.48 C 422.78 187.93 416.71 190.61 411.79 194.04 C 418.60 191.46 426.48 189.67 433.49 192.46 C 437.08 194.13 435.51 199.89 431.81 200.23 C 428.06 200.28 424.24 199.30 420.56 200.39 C 414.34 202.10 408.68 205.56 403.91 209.85 C 399.47 213.88 396.65 220.02 397.84 226.06 C 399.36 235.81 407.69 242.70 415.91 247.12 C 421.86 250.06 429.51 252.43 435.63 248.64 C 439.02 246.75 439.89 242.77 441.56 239.59 C 442.59 237.38 445.88 236.40 447.80 238.04 C 448.56 239.00 449.16 240.09 449.82 241.14 C 451.85 241.86 454.87 242.32 455.00 245.04 C 454.91 251.97 451.93 259.17 446.21 263.31 C 441.34 267.05 435.04 268.32 429.02 268.46 C 418.19 267.96 407.76 263.42 399.42 256.62 C 391.23 249.99 386.95 239.39 387.03 228.98 C 386.66 218.59 390.33 208.49 395.65 199.71 Z" />
<path fill="#000000" opacity="1.00" d=" M 485.21 197.21 C 490.27 189.96 497.33 183.63 506.07 181.38 C 516.79 178.22 528.76 182.84 535.73 191.29 C 537.51 193.74 535.88 197.45 532.94 197.94 C 530.26 198.41 528.40 196.07 526.47 194.65 C 522.53 191.13 517.35 188.74 511.97 189.08 C 507.45 189.31 503.41 191.60 499.72 194.04 C 506.55 191.45 514.46 189.65 521.48 192.49 C 524.89 194.21 523.47 199.66 519.93 200.21 C 515.65 200.24 511.21 199.18 507.07 200.80 C 499.75 203.38 492.64 207.71 488.20 214.21 C 483.57 221.03 485.38 230.48 490.49 236.52 C 496.27 243.34 504.23 248.65 513.11 250.28 C 518.37 251.49 524.93 249.64 527.27 244.39 C 528.65 241.71 529.35 237.44 533.09 237.24 C 535.59 236.81 536.68 239.44 537.79 241.14 C 539.83 241.82 542.79 242.37 542.92 245.07 C 542.82 251.95 539.85 259.09 534.21 263.25 C 529.35 267.02 523.03 268.31 517.01 268.46 C 505.94 267.97 495.25 263.27 486.82 256.18 C 478.93 249.58 474.90 239.19 474.94 229.03 C 474.55 217.62 478.91 206.54 485.21 197.21 Z" />
<path fill="#000000" opacity="1.00" d=" M 691.99 187.96 C 691.47 184.92 693.90 182.04 696.91 181.86 C 703.27 181.51 709.66 181.80 716.03 181.53 C 718.80 181.62 721.80 181.07 724.39 182.35 C 725.23 184.74 725.62 187.26 726.00 189.76 L 726.00 261.04 C 725.66 265.35 725.57 269.70 724.83 273.96 C 724.72 275.37 723.54 276.67 722.06 276.45 C 711.60 276.09 701.12 276.33 690.66 276.25 C 690.29 274.71 689.95 273.17 689.63 271.63 C 690.23 271.25 691.44 270.49 692.04 270.11 C 691.94 242.72 692.02 215.34 691.99 187.96 M 698.00 187.73 C 697.97 189.33 697.93 190.94 697.90 192.55 C 700.15 191.20 703.31 190.62 705.05 193.11 C 706.04 196.11 706.01 199.33 706.41 202.45 C 706.64 198.64 706.54 194.79 707.31 191.05 C 708.01 188.19 711.93 187.07 714.14 188.96 C 716.10 190.33 715.63 192.99 715.58 195.05 C 713.66 215.96 713.89 237.09 716.65 257.91 C 716.80 260.51 717.62 263.24 716.77 265.78 C 715.81 268.23 713.00 268.18 710.81 268.30 C 710.44 268.79 709.70 269.76 709.34 270.25 C 712.66 270.25 715.98 270.25 719.31 270.25 C 720.91 250.53 720.54 230.74 720.15 210.99 C 720.16 203.08 720.73 195.12 719.49 187.26 C 712.33 187.38 705.16 187.35 698.00 187.73 M 698.48 212.25 C 697.47 231.55 698.18 250.89 697.98 270.21 C 699.70 270.24 701.43 270.28 703.17 270.33 C 701.59 265.89 701.68 261.13 701.25 256.50 C 700.17 241.76 698.88 227.03 698.48 212.25 Z" />
<path fill="#000000" opacity="1.00" d=" M 325.31 192.21 C 328.88 191.11 333.21 190.91 335.71 194.19 C 348.00 201.89 349.28 221.28 338.88 231.07 C 331.26 239.12 315.35 238.23 310.10 227.96 C 303.50 214.80 311.09 196.47 325.31 192.21 M 315.24 209.10 C 312.71 215.42 312.55 224.14 318.39 228.70 C 323.07 231.29 329.47 231.10 333.71 227.67 C 340.03 222.94 341.31 213.58 338.52 206.56 C 336.72 201.82 332.08 199.02 327.36 197.84 C 322.04 199.83 317.23 203.62 315.24 209.10 Z" />
<path fill="#000000" opacity="1.00" d=" M 599.37 192.48 C 603.13 191.11 607.92 190.70 610.59 194.28 C 622.95 202.09 624.01 221.70 613.35 231.37 C 605.51 239.27 589.38 238.03 584.58 227.37 C 578.65 214.48 585.79 197.02 599.37 192.48 M 593.93 202.93 C 589.76 207.43 587.82 213.86 588.50 219.93 C 589.02 223.94 591.12 228.41 595.27 229.70 C 599.23 230.79 603.85 230.89 607.35 228.43 C 614.75 223.95 616.40 213.47 613.04 205.98 C 611.14 201.55 606.67 199.08 602.25 197.82 C 599.28 199.17 596.19 200.50 593.93 202.93 Z" />
</svg>
