<?xml version="1.0" encoding="UTF-8" ?>
<!DOCTYPE svg PUBLIC "-//W3C//DTD SVG 1.1//EN" "http://www.w3.org/Graphics/SVG/1.1/DTD/svg11.dtd">
<svg width="160pt" height="160pt" viewBox="0 0 160 160" version="1.1" xmlns="http://www.w3.org/2000/svg">
<g id="#7fa763ff">
<path fill="#7fa763" opacity="1.00" d=" M 90.71 3.62 C 93.16 3.45 95.60 2.09 98.00 3.31 C 100.73 2.43 103.94 1.90 106.42 3.72 C 103.14 5.77 97.79 3.23 95.98 7.55 C 94.35 7.35 92.73 7.09 91.12 6.79 C 91.44 7.29 92.06 8.29 92.37 8.78 C 92.28 8.93 92.10 9.23 92.02 9.38 C 88.55 7.99 84.77 8.81 81.23 7.86 C 80.56 7.63 79.91 7.99 79.26 8.11 C 78.87 7.76 78.09 7.06 77.70 6.71 C 76.69 6.94 75.69 7.20 74.69 7.48 C 74.07 7.70 72.83 8.14 72.21 8.37 C 71.61 9.51 71.00 10.65 70.39 11.78 C 69.36 10.35 68.32 8.91 67.31 7.46 C 66.67 7.47 65.40 7.49 64.76 7.50 L 64.48 7.51 C 62.58 7.41 60.70 7.22 58.81 7.12 C 58.62 6.57 58.25 5.48 58.06 4.93 C 58.79 4.18 59.52 3.42 60.23 2.65 C 61.52 3.61 62.94 4.44 63.98 5.69 C 66.66 4.69 69.34 6.33 72.09 5.87 C 75.32 2.84 80.85 4.30 84.01 6.80 C 84.86 4.66 87.56 5.04 89.23 5.80 C 89.60 5.25 90.34 4.16 90.71 3.62 Z" />
</g>
<g id="#92b475ff">
<path fill="#92b475" opacity="1.00" d=" M 54.17 5.55 C 54.73 2.85 58.11 3.20 60.23 2.65 C 59.52 3.42 58.79 4.18 58.06 4.93 C 58.25 5.48 58.62 6.57 58.81 7.12 C 56.10 6.97 53.61 8.00 51.19 9.06 C 48.98 9.64 46.64 9.48 44.39 9.95 C 44.26 9.83 44.00 9.59 43.87 9.47 C 43.76 9.00 43.54 8.07 43.43 7.60 C 39.93 8.18 37.84 11.57 34.57 12.78 C 34.32 12.09 33.81 10.71 33.55 10.03 L 33.60 9.05 C 34.82 8.81 35.93 8.30 36.91 7.54 C 40.11 7.92 42.38 4.84 45.57 5.09 C 45.66 5.70 45.84 6.94 45.93 7.56 C 48.27 5.69 51.24 5.08 54.17 5.55 Z" />
</g>
<g id="#669443ff">
<path fill="#669443" opacity="1.00" d=" M 106.42 3.72 L 106.92 3.50 C 107.43 3.74 108.46 4.23 108.98 4.47 L 109.40 5.79 C 105.69 7.32 101.82 5.27 97.98 5.92 C 98.83 6.71 99.68 7.48 100.54 8.26 C 99.81 9.46 99.07 10.65 98.32 11.83 C 97.82 11.44 96.81 10.64 96.31 10.25 C 95.24 11.59 94.51 13.35 93.00 14.25 C 91.39 14.04 90.04 13.04 88.60 12.36 C 87.10 15.83 84.26 18.46 82.66 21.87 C 82.24 23.13 80.89 23.40 79.81 23.86 C 79.37 22.81 78.93 21.76 78.48 20.72 C 76.93 20.48 75.38 20.24 73.83 19.98 C 73.58 16.53 69.53 16.18 66.82 16.12 C 67.54 17.93 69.44 18.68 70.92 19.75 C 69.58 20.21 68.23 20.63 66.84 20.89 C 65.33 23.27 64.29 26.07 61.84 27.69 C 60.57 27.26 59.30 26.85 58.03 26.45 C 59.75 25.80 61.65 25.46 63.13 24.29 C 61.59 23.17 60.40 21.70 60.01 19.82 C 58.43 19.81 56.86 19.81 55.30 19.79 C 56.19 20.16 57.08 20.53 57.98 20.90 C 57.24 21.57 56.51 22.24 55.79 22.92 C 53.37 22.83 50.95 22.78 48.53 22.82 C 48.95 21.19 49.22 19.52 49.31 17.83 C 48.24 18.79 47.20 19.78 46.17 20.77 C 44.35 17.87 42.49 14.97 40.01 12.58 C 38.48 13.72 37.01 14.91 35.63 16.22 C 35.89 17.38 36.07 18.56 35.78 19.74 C 38.04 24.09 42.74 27.30 42.72 32.62 C 42.03 33.46 41.37 34.31 40.75 35.19 C 39.88 33.86 38.96 32.57 37.99 31.31 C 37.09 32.33 37.61 33.71 37.60 34.91 C 34.84 35.69 33.36 38.82 30.45 39.06 C 30.11 38.60 29.44 37.68 29.10 37.22 C 28.39 37.74 27.69 38.27 26.98 38.79 C 27.30 40.81 27.54 42.84 27.77 44.87 C 25.03 44.02 21.67 43.22 21.02 39.97 C 19.67 40.51 18.33 41.11 17.03 41.79 C 18.27 39.69 19.21 37.17 17.32 35.13 C 14.89 36.10 12.35 37.18 10.87 39.47 C 10.13 40.72 8.66 40.95 7.40 41.39 C 8.08 39.28 9.05 37.30 9.96 35.29 C 11.85 31.84 12.08 25.53 17.10 25.36 C 17.51 26.58 17.93 27.78 18.37 28.99 C 18.58 27.55 18.78 26.12 18.99 24.68 C 21.83 24.89 20.20 28.51 20.57 30.37 C 21.88 30.74 23.24 30.79 24.60 30.89 C 24.64 28.96 24.51 26.99 23.56 25.26 C 24.15 24.59 24.83 24.00 25.42 23.32 C 25.00 22.35 24.58 21.37 24.16 20.39 C 25.69 20.55 27.26 20.89 28.79 20.54 C 30.37 19.84 31.94 19.11 33.51 18.40 C 33.66 17.27 33.82 16.13 33.98 14.99 C 37.18 12.39 40.69 9.79 45.08 10.58 C 46.34 11.85 47.63 13.22 47.66 15.13 C 50.40 17.29 53.86 16.75 56.86 15.40 C 58.02 16.14 59.14 16.94 60.39 17.52 C 62.64 17.83 63.98 15.52 65.06 13.92 C 63.84 11.17 60.52 11.20 58.04 10.41 C 60.23 9.56 62.37 8.56 64.48 7.51 L 64.76 7.50 C 66.31 9.24 67.74 11.19 67.79 13.62 C 69.66 14.69 71.67 15.48 73.72 16.12 C 73.02 15.37 72.31 14.63 71.60 13.89 C 74.14 13.91 77.49 15.78 79.30 13.17 C 77.85 12.65 76.39 12.17 74.92 11.70 C 76.12 10.73 77.22 9.64 78.34 8.58 C 77.12 8.21 75.91 7.84 74.69 7.48 C 75.69 7.20 76.69 6.94 77.70 6.71 C 78.09 7.06 78.87 7.76 79.26 8.11 C 79.91 7.99 80.56 7.63 81.23 7.86 C 84.77 8.81 88.55 7.99 92.02 9.38 C 92.10 9.23 92.28 8.93 92.37 8.78 C 92.06 8.29 91.44 7.29 91.12 6.79 C 92.73 7.09 94.35 7.35 95.98 7.55 C 97.79 3.23 103.14 5.77 106.42 3.72 M 40.41 28.29 C 39.36 28.44 37.65 28.64 37.37 29.86 C 38.07 32.02 42.54 29.44 40.41 28.29 M 24.57 32.92 C 25.13 34.36 26.16 35.50 27.21 36.59 C 28.62 36.25 30.72 36.49 30.30 34.39 C 29.74 34.42 28.63 34.49 28.08 34.52 C 28.30 33.33 28.52 32.14 28.73 30.95 C 27.22 31.33 25.59 31.61 24.57 32.92 Z" />
</g>
<g id="#74955fff">
<path fill="#74955f" opacity="1.00" d=" M 108.98 4.47 C 110.93 5.05 112.93 4.63 114.92 4.64 C 116.39 6.15 118.11 7.38 119.90 8.48 C 120.44 8.05 121.52 7.18 122.06 6.74 C 122.94 9.03 125.80 9.01 126.90 11.06 C 127.75 12.34 127.81 13.97 128.65 15.27 C 129.95 15.52 131.22 15.92 132.37 16.60 C 132.53 18.72 133.92 20.36 134.81 22.21 C 135.20 23.93 134.44 25.66 134.16 27.35 C 139.65 28.57 141.08 34.49 143.11 38.94 C 143.32 41.16 143.77 43.36 144.72 45.40 C 145.77 46.16 147.74 46.35 147.53 48.12 C 147.04 48.77 146.60 49.45 146.21 50.17 C 147.25 50.86 148.39 51.30 149.63 51.49 C 149.82 52.00 150.21 53.01 150.41 53.51 C 152.22 54.03 153.33 55.39 153.61 57.25 C 155.37 58.21 155.03 60.32 154.31 61.85 C 155.88 63.21 156.33 65.29 156.63 67.25 L 155.47 68.02 C 154.62 68.41 153.77 68.77 152.91 69.11 C 152.85 66.43 152.25 63.84 150.21 61.96 C 149.00 58.64 147.41 55.51 145.26 52.69 C 143.84 44.78 140.27 37.47 135.04 31.40 C 133.54 28.80 132.50 25.97 131.49 23.16 C 130.70 24.00 129.91 24.84 129.11 25.67 C 129.14 25.09 129.21 23.93 129.24 23.35 C 129.55 21.54 129.95 19.75 130.33 17.95 C 127.02 17.36 124.60 15.07 121.75 13.71 C 119.97 11.31 117.46 7.70 113.99 8.77 C 112.61 9.03 111.73 10.25 110.64 11.01 C 110.29 10.71 109.60 10.09 109.25 9.79 C 109.34 8.46 109.44 7.12 109.40 5.79 L 108.98 4.47 Z" />
</g>
<g id="#4e7636ff">
<path fill="#4e7636" opacity="1.00" d=" M 97.98 5.92 C 101.82 5.27 105.69 7.32 109.40 5.79 C 109.44 7.12 109.34 8.46 109.25 9.79 C 109.60 10.09 110.29 10.71 110.64 11.01 C 110.88 11.27 111.37 11.77 111.62 12.03 C 111.06 12.48 110.50 12.92 109.95 13.37 C 108.41 13.11 106.75 12.60 105.43 13.75 C 108.08 17.08 111.88 18.96 116.04 19.53 C 116.11 18.51 116.19 17.49 116.27 16.47 C 115.78 16.42 114.79 16.31 114.30 16.26 C 114.50 14.15 114.60 12.04 114.62 9.92 C 116.59 11.79 118.53 16.43 121.75 13.71 C 124.60 15.07 127.02 17.36 130.33 17.95 C 129.95 19.75 129.55 21.54 129.24 23.35 C 127.56 22.87 125.82 22.55 124.23 21.80 C 123.20 20.76 122.35 19.51 120.99 18.87 C 120.83 19.32 120.51 20.24 120.35 20.70 C 118.59 20.71 116.29 21.03 115.71 23.03 C 114.60 25.81 118.04 27.10 119.61 28.74 C 119.87 27.52 120.12 26.30 120.37 25.08 C 121.72 27.27 123.94 28.80 125.09 31.12 C 125.90 32.52 124.73 33.96 124.41 35.32 C 126.25 34.43 127.98 33.31 129.45 31.87 C 128.88 31.11 128.32 30.35 127.76 29.59 C 128.82 28.52 130.26 28.83 131.61 28.95 C 131.38 31.18 131.32 33.42 131.32 35.66 C 131.87 35.73 132.97 35.88 133.52 35.95 C 133.44 34.20 132.63 31.89 135.04 31.40 C 140.27 37.47 143.84 44.78 145.26 52.69 C 145.30 54.94 145.60 57.24 145.26 59.48 C 144.51 60.49 143.55 61.30 142.63 62.16 C 141.74 61.60 140.85 61.04 139.96 60.49 C 138.75 61.63 137.80 62.99 137.03 64.45 C 136.40 65.72 135.46 66.79 134.27 67.57 C 134.40 66.54 134.55 65.52 134.71 64.50 C 133.66 64.53 132.61 64.58 131.57 64.57 C 131.29 64.19 130.73 63.43 130.44 63.05 C 131.84 62.92 133.23 62.71 134.61 62.47 C 136.25 60.29 138.36 58.56 140.53 56.94 C 141.68 57.67 142.83 58.37 144.02 59.03 C 143.47 57.02 142.19 55.36 141.06 53.65 C 141.99 53.63 142.92 53.62 143.86 53.60 C 143.79 51.26 142.97 49.07 140.34 48.96 C 141.01 48.20 141.69 47.44 142.36 46.67 C 141.48 46.50 140.61 46.31 139.73 46.14 C 139.03 44.39 138.21 42.68 137.39 40.98 C 137.69 39.84 137.99 38.69 138.30 37.55 C 137.70 37.32 136.52 36.87 135.93 36.64 C 134.64 37.68 133.46 38.84 132.37 40.09 C 132.90 41.64 133.40 43.20 133.97 44.74 C 132.92 43.53 131.80 42.33 130.32 41.63 C 130.87 43.83 131.67 46.06 131.04 48.34 C 130.40 48.15 129.76 47.96 129.12 47.78 C 128.49 48.03 127.85 48.28 127.22 48.53 C 127.45 47.45 127.68 46.36 127.92 45.28 C 125.56 46.43 122.29 46.71 121.25 49.50 C 122.16 50.24 123.08 50.99 123.99 51.74 C 121.52 51.59 119.04 51.52 116.58 51.79 C 116.53 52.65 116.48 53.51 116.44 54.36 C 115.61 54.33 114.79 54.30 113.97 54.27 C 112.65 56.13 111.19 57.97 109.10 59.02 C 108.61 58.72 107.61 58.12 107.11 57.82 C 105.95 57.08 104.73 56.40 103.34 56.27 C 103.49 57.87 103.64 59.46 103.76 61.06 C 101.62 60.27 101.18 57.67 99.33 56.47 C 99.45 57.89 99.60 59.31 99.77 60.72 C 98.73 59.85 97.69 58.98 96.65 58.11 C 96.67 57.18 96.67 56.25 96.69 55.32 C 95.36 55.02 94.04 54.71 92.72 54.40 C 92.58 52.44 91.31 51.04 89.90 49.81 C 90.78 49.33 91.66 48.84 92.53 48.33 C 92.81 46.98 93.27 45.65 93.31 44.26 C 92.61 42.40 90.94 41.16 89.55 39.82 C 89.96 39.18 90.38 38.54 90.79 37.90 C 90.20 37.24 89.60 36.59 89.00 35.93 C 89.93 34.73 90.77 33.46 91.70 32.26 C 92.41 33.73 93.12 35.21 93.82 36.69 C 93.20 37.65 92.61 38.63 92.03 39.61 C 96.09 40.76 100.33 41.41 103.80 44.03 C 103.32 44.95 102.83 45.88 102.35 46.80 C 102.77 47.85 103.19 48.89 103.62 49.93 C 108.91 48.86 113.23 45.27 117.27 41.93 C 116.28 40.54 116.09 38.97 116.83 37.41 C 117.81 37.90 118.80 38.39 119.78 38.88 C 119.43 36.70 119.09 34.53 118.75 32.35 C 117.10 32.77 115.33 33.14 113.71 32.37 C 111.65 31.84 110.72 29.64 108.81 28.82 C 108.70 29.41 108.49 30.58 108.39 31.17 C 107.91 31.03 106.94 30.74 106.46 30.60 C 106.44 28.80 106.09 26.85 106.91 25.16 C 108.05 24.30 109.30 23.59 110.51 22.83 C 107.14 21.35 103.51 22.09 99.99 22.25 C 98.15 23.19 96.72 24.75 95.20 26.12 C 94.94 27.51 94.69 28.90 94.35 30.27 L 93.90 30.62 C 93.14 30.35 92.38 30.07 91.62 29.79 C 91.84 27.64 91.91 25.48 91.92 23.32 C 89.81 24.97 87.41 26.57 84.60 26.41 C 82.22 26.09 80.49 27.89 78.59 28.98 C 78.49 26.13 77.08 22.20 73.63 22.44 C 73.54 23.61 73.44 24.78 73.34 25.95 C 72.09 25.47 70.84 24.99 69.59 24.51 C 68.67 25.90 67.75 27.31 66.61 28.53 C 65.11 29.05 63.60 29.56 62.04 29.82 C 59.48 29.31 57.45 27.49 55.61 25.75 C 55.67 24.81 55.73 23.87 55.79 22.92 C 56.51 22.24 57.24 21.57 57.98 20.90 C 57.08 20.53 56.19 20.16 55.30 19.79 C 56.86 19.81 58.43 19.81 60.01 19.82 C 60.40 21.70 61.59 23.17 63.13 24.29 C 61.65 25.46 59.75 25.80 58.03 26.45 C 59.30 26.85 60.57 27.26 61.84 27.69 C 64.29 26.07 65.33 23.27 66.84 20.89 C 68.23 20.63 69.58 20.21 70.92 19.75 C 69.44 18.68 67.54 17.93 66.82 16.12 C 69.53 16.18 73.58 16.53 73.83 19.98 C 75.38 20.24 76.93 20.48 78.48 20.72 C 78.93 21.76 79.37 22.81 79.81 23.86 C 80.89 23.40 82.24 23.13 82.66 21.87 C 84.26 18.46 87.10 15.83 88.60 12.36 C 90.04 13.04 91.39 14.04 93.00 14.25 C 94.51 13.35 95.24 11.59 96.31 10.25 C 96.81 10.64 97.82 11.44 98.32 11.83 C 99.07 10.65 99.81 9.46 100.54 8.26 C 99.68 7.48 98.83 6.71 97.98 5.92 M 87.22 17.02 C 85.86 17.72 85.83 18.38 87.13 18.99 C 88.51 18.29 88.54 17.63 87.22 17.02 M 111.33 25.74 C 110.19 25.49 109.05 25.23 107.91 24.98 C 106.96 28.86 112.74 28.26 114.84 26.70 C 114.85 25.35 113.82 24.47 113.03 23.52 C 112.61 24.08 111.76 25.19 111.33 25.74 Z" />
</g>
<g id="#74a24aff">
<path fill="#74a24a" opacity="1.00" d=" M 51.19 9.06 C 53.61 8.00 56.10 6.97 58.81 7.12 C 60.70 7.22 62.58 7.41 64.48 7.51 C 62.37 8.56 60.23 9.56 58.04 10.41 C 60.52 11.20 63.84 11.17 65.06 13.92 C 63.98 15.52 62.64 17.83 60.39 17.52 C 59.14 16.94 58.02 16.14 56.86 15.40 C 53.86 16.75 50.40 17.29 47.66 15.13 C 47.63 13.22 46.34 11.85 45.08 10.58 L 44.39 9.95 C 46.64 9.48 48.98 9.64 51.19 9.06 Z" />
</g>
<g id="#4a7135ff">
<path fill="#4a7135" opacity="1.00" d=" M 64.76 7.50 C 65.40 7.49 66.67 7.47 67.31 7.46 C 68.32 8.91 69.36 10.35 70.39 11.78 C 71.00 10.65 71.61 9.51 72.21 8.37 C 72.83 8.14 74.07 7.70 74.69 7.48 C 75.91 7.84 77.12 8.21 78.34 8.58 C 77.22 9.64 76.12 10.73 74.92 11.70 C 73.71 12.27 72.38 12.72 71.60 13.89 C 72.31 14.63 73.02 15.37 73.72 16.12 C 71.67 15.48 69.66 14.69 67.79 13.62 C 67.74 11.19 66.31 9.24 64.76 7.50 Z" />
</g>
<g id="#7ca161ff">
<path fill="#7ca161" opacity="1.00" d=" M 34.57 12.78 C 37.84 11.57 39.93 8.18 43.43 7.60 C 43.54 8.07 43.76 9.00 43.87 9.47 C 44.00 9.59 44.26 9.83 44.39 9.95 L 45.08 10.58 C 40.69 9.79 37.18 12.39 33.98 14.99 C 33.82 16.13 33.66 17.27 33.51 18.40 C 31.94 19.11 30.37 19.84 28.79 20.54 C 28.06 19.25 27.34 17.92 27.08 16.44 L 27.11 14.75 C 27.62 14.70 28.64 14.59 29.15 14.53 C 30.11 12.63 31.97 11.39 33.55 10.03 C 33.81 10.71 34.32 12.09 34.57 12.78 Z" />
</g>
<g id="#608e40ff">
<path fill="#608e40" opacity="1.00" d=" M 113.99 8.77 C 117.46 7.70 119.97 11.31 121.75 13.71 C 118.53 16.43 116.59 11.79 114.62 9.92 C 114.60 12.04 114.50 14.15 114.30 16.26 C 114.79 16.31 115.78 16.42 116.27 16.47 C 116.19 17.49 116.11 18.51 116.04 19.53 C 111.88 18.96 108.08 17.08 105.43 13.75 C 106.75 12.60 108.41 13.11 109.95 13.37 C 110.50 12.92 111.06 12.48 111.62 12.03 C 111.37 11.77 110.88 11.27 110.64 11.01 C 111.73 10.25 112.61 9.03 113.99 8.77 Z" />
</g>
<g id="#7fa856ff">
<path fill="#7fa856" opacity="1.00" d=" M 71.60 13.89 C 72.38 12.72 73.71 12.27 74.92 11.70 C 76.39 12.17 77.85 12.65 79.30 13.17 C 77.49 15.78 74.14 13.91 71.60 13.89 Z" />
</g>
<g id="#476d30ff">
<path fill="#476d30" opacity="1.00" d=" M 35.63 16.22 C 37.01 14.91 38.48 13.72 40.01 12.58 C 42.49 14.97 44.35 17.87 46.17 20.77 C 47.20 19.78 48.24 18.79 49.31 17.83 C 49.22 19.52 48.95 21.19 48.53 22.82 C 50.95 22.78 53.37 22.83 55.79 22.92 C 55.73 23.87 55.67 24.81 55.61 25.75 C 57.45 27.49 59.48 29.31 62.04 29.82 C 63.60 29.56 65.11 29.05 66.61 28.53 C 65.07 29.65 63.72 33.15 61.41 31.62 C 59.75 30.94 57.96 31.83 56.27 32.00 C 55.62 30.50 54.88 29.06 54.01 27.68 C 52.91 28.84 51.84 30.03 50.79 31.23 C 49.43 29.15 48.28 26.93 46.79 24.94 C 46.36 24.07 45.32 24.64 44.62 24.68 C 45.77 27.88 45.76 31.37 44.70 34.59 C 43.63 36.59 45.94 37.82 47.01 39.13 C 46.67 39.38 45.99 39.88 45.65 40.13 C 45.15 39.80 44.15 39.12 43.65 38.78 C 42.53 40.73 41.89 42.92 40.82 44.89 C 37.64 47.79 34.09 51.60 29.32 50.22 C 28.70 50.85 28.07 51.49 27.45 52.13 C 26.71 52.22 25.96 52.30 25.22 52.38 C 25.34 53.63 25.45 54.88 25.55 56.13 C 24.55 54.85 23.61 53.52 22.74 52.14 C 22.08 52.04 20.76 51.83 20.11 51.72 C 20.55 52.49 20.99 53.25 21.43 54.02 C 20.92 54.73 20.40 55.44 19.89 56.15 C 20.98 56.78 22.07 57.40 23.15 58.03 C 22.19 58.48 21.22 58.94 20.26 59.39 C 20.01 60.42 19.76 61.46 19.51 62.50 C 18.83 62.17 18.14 61.84 17.46 61.51 C 17.02 61.19 16.14 60.56 15.70 60.24 C 14.77 60.36 13.85 60.47 12.92 60.59 C 11.43 58.01 10.17 55.31 10.10 52.27 C 10.91 50.62 11.77 48.98 12.76 47.42 C 15.33 47.07 17.72 46.06 19.92 44.73 C 19.42 45.70 18.92 46.68 18.43 47.65 C 20.52 47.78 22.60 48.16 24.70 48.22 C 26.61 47.34 28.05 45.71 29.68 44.41 C 29.99 44.60 30.59 44.96 30.89 45.14 C 30.32 46.45 29.75 47.76 29.20 49.07 C 30.34 48.30 31.44 47.48 32.57 46.68 C 33.48 46.97 34.39 47.38 35.30 47.71 C 35.88 47.13 36.46 46.55 37.06 45.98 C 35.66 45.56 34.07 45.35 33.06 44.18 C 33.49 43.15 33.90 42.12 34.29 41.08 C 35.30 42.12 36.32 43.17 37.33 44.21 C 39.75 41.85 39.55 38.17 40.75 35.19 C 41.37 34.31 42.03 33.46 42.72 32.62 C 42.74 27.30 38.04 24.09 35.78 19.74 C 36.07 18.56 35.89 17.38 35.63 16.22 Z" />
</g>
<g id="#87ab66ff">
<path fill="#87ab66" opacity="1.00" d=" M 16.96 19.12 C 19.27 17.79 21.94 17.09 23.96 15.28 C 25.01 15.64 26.06 16.01 27.08 16.44 C 27.34 17.92 28.06 19.25 28.79 20.54 C 27.26 20.89 25.69 20.55 24.16 20.39 C 24.58 21.37 25.00 22.35 25.42 23.32 C 24.83 24.00 24.15 24.59 23.56 25.26 C 24.51 26.99 24.64 28.96 24.60 30.89 C 23.24 30.79 21.88 30.74 20.57 30.37 C 20.20 28.51 21.83 24.89 18.99 24.68 C 18.78 26.12 18.58 27.55 18.37 28.99 C 17.93 27.78 17.51 26.58 17.10 25.36 C 12.08 25.53 11.85 31.84 9.96 35.29 C 9.20 35.32 7.69 35.37 6.93 35.40 C 6.45 34.74 5.48 33.44 5.00 32.79 C 6.56 32.33 7.10 31.28 6.61 29.62 C 7.17 29.42 8.30 29.02 8.86 28.82 C 8.22 27.11 8.92 25.98 10.63 25.58 C 11.39 24.34 12.04 23.02 12.94 21.87 C 14.42 21.16 15.89 20.42 16.96 19.12 Z" />
</g>
<g id="#6d9847ff">
<path fill="#6d9847" opacity="1.00" d=" M 87.22 17.02 C 88.54 17.63 88.51 18.29 87.13 18.99 C 85.83 18.38 85.86 17.72 87.22 17.02 Z" />
</g>
<g id="#628a43ff">
<path fill="#628a43" opacity="1.00" d=" M 120.99 18.87 C 122.35 19.51 123.20 20.76 124.23 21.80 C 125.82 22.55 127.56 22.87 129.24 23.35 C 129.21 23.93 129.14 25.09 129.11 25.67 C 129.91 24.84 130.70 24.00 131.49 23.16 C 132.50 25.97 133.54 28.80 135.04 31.40 C 132.63 31.89 133.44 34.20 133.52 35.95 C 132.97 35.88 131.87 35.73 131.32 35.66 C 131.32 33.42 131.38 31.18 131.61 28.95 C 130.26 28.83 128.82 28.52 127.76 29.59 C 128.32 30.35 128.88 31.11 129.45 31.87 C 127.98 33.31 126.25 34.43 124.41 35.32 C 124.73 33.96 125.90 32.52 125.09 31.12 C 123.94 28.80 121.72 27.27 120.37 25.08 C 120.12 26.30 119.87 27.52 119.61 28.74 C 118.04 27.10 114.60 25.81 115.71 23.03 C 116.29 21.03 118.59 20.71 120.35 20.70 C 120.51 20.24 120.83 19.32 120.99 18.87 Z" />
</g>
<g id="#639242ff">
<path fill="#639242" opacity="1.00" d=" M 99.99 22.25 C 103.51 22.09 107.14 21.35 110.51 22.83 C 109.30 23.59 108.05 24.30 106.91 25.16 C 106.09 26.85 106.44 28.80 106.46 30.60 C 106.94 30.74 107.91 31.03 108.39 31.17 C 108.49 30.58 108.70 29.41 108.81 28.82 C 110.72 29.64 111.65 31.84 113.71 32.37 C 115.33 33.14 117.10 32.77 118.75 32.35 C 119.09 34.53 119.43 36.70 119.78 38.88 C 118.80 38.39 117.81 37.90 116.83 37.41 C 116.09 38.97 116.28 40.54 117.27 41.93 C 113.23 45.27 108.91 48.86 103.62 49.93 C 103.19 48.89 102.77 47.85 102.35 46.80 C 102.83 45.88 103.32 44.95 103.80 44.03 C 100.33 41.41 96.09 40.76 92.03 39.61 C 92.61 38.63 93.20 37.65 93.82 36.69 C 93.12 35.21 92.41 33.73 91.70 32.26 C 92.25 31.85 93.35 31.03 93.90 30.62 L 94.35 30.27 C 94.69 28.90 94.94 27.51 95.20 26.12 C 96.72 24.75 98.15 23.19 99.99 22.25 M 97.33 30.26 C 97.56 31.13 97.79 32.00 98.01 32.87 C 98.69 32.86 100.07 32.86 100.76 32.86 C 100.27 32.25 99.79 31.64 99.31 31.02 C 100.99 31.14 102.49 31.94 103.98 32.64 C 103.67 30.96 102.77 29.20 101.03 28.63 C 99.58 28.53 98.47 29.56 97.33 30.26 Z" />
</g>
<g id="#3c5b29ff">
<path fill="#3c5b29" opacity="1.00" d=" M 73.63 22.44 C 77.08 22.20 78.49 26.13 78.59 28.98 C 80.49 27.89 82.22 26.09 84.60 26.41 C 87.41 26.57 89.81 24.97 91.92 23.32 C 91.91 25.48 91.84 27.64 91.62 29.79 C 92.38 30.07 93.14 30.35 93.90 30.62 C 93.35 31.03 92.25 31.85 91.70 32.26 C 90.77 33.46 89.93 34.73 89.00 35.93 C 88.15 36.94 87.24 37.89 86.34 38.86 C 85.23 36.77 84.18 34.16 81.57 33.67 C 78.97 33.11 77.26 30.98 75.45 29.22 C 73.83 31.34 73.06 34.56 70.13 35.24 C 66.53 36.81 62.56 33.20 59.29 35.89 C 59.95 36.99 60.62 38.09 61.33 39.15 C 60.83 39.19 59.82 39.26 59.32 39.29 C 58.49 38.40 57.65 37.52 56.81 36.63 C 55.88 36.96 54.94 37.29 54.01 37.62 C 53.66 37.23 52.95 36.45 52.60 36.06 C 53.27 34.97 53.95 33.87 54.63 32.78 C 53.35 32.26 52.07 31.75 50.79 31.23 C 51.84 30.03 52.91 28.84 54.01 27.68 C 54.88 29.06 55.62 30.50 56.27 32.00 C 57.96 31.83 59.75 30.94 61.41 31.62 C 63.72 33.15 65.07 29.65 66.61 28.53 C 67.75 27.31 68.67 25.90 69.59 24.51 C 70.84 24.99 72.09 25.47 73.34 25.95 C 73.44 24.78 73.54 23.61 73.63 22.44 M 83.18 27.21 C 82.48 27.89 81.77 28.55 81.06 29.21 C 81.23 30.20 81.59 31.12 82.12 31.97 C 82.72 31.17 83.15 30.27 83.55 29.37 C 84.28 31.67 86.90 31.67 88.87 31.97 C 88.56 31.20 88.25 30.44 87.94 29.68 C 86.13 29.35 84.65 28.23 83.18 27.21 Z" />
</g>
<g id="#283f1aff">
<path fill="#283f1a" opacity="1.00" d=" M 44.62 24.68 C 45.32 24.64 46.36 24.07 46.79 24.94 C 48.28 26.93 49.43 29.15 50.79 31.23 C 52.07 31.75 53.35 32.26 54.63 32.78 C 53.95 33.87 53.27 34.97 52.60 36.06 C 52.95 36.45 53.66 37.23 54.01 37.62 C 54.94 37.29 55.88 36.96 56.81 36.63 C 57.65 37.52 58.49 38.40 59.32 39.29 C 59.82 39.26 60.83 39.19 61.33 39.15 C 62.29 39.88 63.27 40.56 64.23 41.27 C 65.32 40.40 66.04 39.19 66.78 38.03 C 67.35 39.09 67.91 40.16 68.46 41.24 C 68.29 41.75 67.96 42.76 67.80 43.27 C 60.94 42.92 55.00 46.52 48.83 48.90 C 46.28 49.59 46.02 53.06 43.20 53.34 L 41.93 52.94 C 41.80 51.54 41.66 50.14 41.56 48.74 C 42.46 48.07 43.36 47.39 44.24 46.70 C 44.07 46.06 43.81 45.45 43.63 44.81 C 44.61 43.40 45.33 41.83 45.65 40.13 C 45.99 39.88 46.67 39.38 47.01 39.13 C 45.94 37.82 43.63 36.59 44.70 34.59 C 45.76 31.37 45.77 27.88 44.62 24.68 Z" />
</g>
<g id="#649143ff">
<path fill="#649143" opacity="1.00" d=" M 111.33 25.74 C 111.76 25.19 112.61 24.08 113.03 23.52 C 113.82 24.47 114.85 25.35 114.84 26.70 C 112.74 28.26 106.96 28.86 107.91 24.98 C 109.05 25.23 110.19 25.49 111.33 25.74 Z" />
</g>
<g id="#4f7636ff">
<path fill="#4f7636" opacity="1.00" d=" M 83.18 27.21 C 84.65 28.23 86.13 29.35 87.94 29.68 C 88.25 30.44 88.56 31.20 88.87 31.97 C 86.90 31.67 84.28 31.67 83.55 29.37 C 83.15 30.27 82.72 31.17 82.12 31.97 C 81.59 31.12 81.23 30.20 81.06 29.21 C 81.77 28.55 82.48 27.89 83.18 27.21 Z" />
</g>
<g id="#7ea558ff">
<path fill="#7ea558" opacity="1.00" d=" M 40.41 28.29 C 42.54 29.44 38.07 32.02 37.37 29.86 C 37.65 28.64 39.36 28.44 40.41 28.29 Z" />
</g>
<g id="#2f481dff">
<path fill="#2f481d" opacity="1.00" d=" M 70.13 35.24 C 73.06 34.56 73.83 31.34 75.45 29.22 C 77.26 30.98 78.97 33.11 81.57 33.67 C 84.18 34.16 85.23 36.77 86.34 38.86 C 87.24 37.89 88.15 36.94 89.00 35.93 C 89.60 36.59 90.20 37.24 90.79 37.90 C 90.38 38.54 89.96 39.18 89.55 39.82 C 90.94 41.16 92.61 42.40 93.31 44.26 C 93.27 45.65 92.81 46.98 92.53 48.33 C 91.66 48.84 90.78 49.33 89.90 49.81 C 89.19 49.85 87.76 49.92 87.05 49.95 C 86.40 47.98 86.71 45.43 84.74 44.16 C 83.56 43.19 81.92 43.75 80.54 43.67 C 80.54 42.97 80.54 42.26 80.54 41.55 C 78.62 41.67 76.65 42.00 74.76 41.45 C 75.46 40.23 76.17 39.00 76.86 37.78 C 75.48 37.58 74.00 37.07 72.64 37.65 C 71.89 38.56 71.27 39.57 70.62 40.55 C 70.08 40.72 69.00 41.06 68.46 41.24 C 67.91 40.16 67.35 39.09 66.78 38.03 C 66.04 39.19 65.32 40.40 64.23 41.27 C 63.27 40.56 62.29 39.88 61.33 39.15 C 60.62 38.09 59.95 36.99 59.29 35.89 C 62.56 33.20 66.53 36.81 70.13 35.24 Z" />
</g>
<g id="#4f7737ff">
<path fill="#4f7737" opacity="1.00" d=" M 97.33 30.26 C 98.47 29.56 99.58 28.53 101.03 28.63 C 102.77 29.20 103.67 30.96 103.98 32.64 C 102.49 31.94 100.99 31.14 99.31 31.02 C 99.79 31.64 100.27 32.25 100.76 32.86 C 100.07 32.86 98.69 32.86 98.01 32.87 C 97.79 32.00 97.56 31.13 97.33 30.26 Z" />
</g>
<g id="#86ad5cff">
<path fill="#86ad5c" opacity="1.00" d=" M 24.57 32.92 C 25.59 31.61 27.22 31.33 28.73 30.95 C 28.52 32.14 28.30 33.33 28.08 34.52 C 28.63 34.49 29.74 34.42 30.30 34.39 C 30.72 36.49 28.62 36.25 27.21 36.59 C 26.16 35.50 25.13 34.36 24.57 32.92 Z" />
</g>
<g id="#547f39ff">
<path fill="#547f39" opacity="1.00" d=" M 37.60 34.91 C 37.61 33.71 37.09 32.33 37.99 31.31 C 38.96 32.57 39.88 33.86 40.75 35.19 C 39.55 38.17 39.75 41.85 37.33 44.21 C 36.32 43.17 35.30 42.12 34.29 41.08 C 33.90 42.12 33.49 43.15 33.06 44.18 C 34.07 45.35 35.66 45.56 37.06 45.98 C 36.46 46.55 35.88 47.13 35.30 47.71 C 34.39 47.38 33.48 46.97 32.57 46.68 C 31.44 47.48 30.34 48.30 29.20 49.07 C 29.75 47.76 30.32 46.45 30.89 45.14 C 30.59 44.96 29.99 44.60 29.68 44.41 C 28.05 45.71 26.61 47.34 24.70 48.22 C 22.60 48.16 20.52 47.78 18.43 47.65 C 18.92 46.68 19.42 45.70 19.92 44.73 C 17.72 46.06 15.33 47.07 12.76 47.42 C 11.77 48.98 10.91 50.62 10.10 52.27 C 9.19 51.12 6.88 50.06 7.92 48.28 C 8.29 47.84 9.04 46.97 9.41 46.54 C 8.65 46.28 7.89 46.03 7.13 45.78 C 7.13 44.31 7.15 42.84 7.40 41.39 C 8.66 40.95 10.13 40.72 10.87 39.47 C 12.35 37.18 14.89 36.10 17.32 35.13 C 19.21 37.17 18.27 39.69 17.03 41.79 C 18.33 41.11 19.67 40.51 21.02 39.97 C 21.67 43.22 25.03 44.02 27.77 44.87 C 27.54 42.84 27.30 40.81 26.98 38.79 C 27.69 38.27 28.39 37.74 29.10 37.22 C 29.44 37.68 30.11 38.60 30.45 39.06 C 33.36 38.82 34.84 35.69 37.60 34.91 Z" />
</g>
<g id="#6e8f5aff">
<path fill="#6e8f5a" opacity="1.00" d=" M 3.45 43.44 C 1.05 39.99 4.87 36.34 5.00 32.79 C 5.48 33.44 6.45 34.74 6.93 35.40 C 7.69 35.37 9.20 35.32 9.96 35.29 C 9.05 37.30 8.08 39.28 7.40 41.39 C 7.15 42.84 7.13 44.31 7.13 45.78 C 7.89 46.03 8.65 46.28 9.41 46.54 C 9.04 46.97 8.29 47.84 7.92 48.28 C 6.88 50.06 9.19 51.12 10.10 52.27 C 10.17 55.31 11.43 58.01 12.92 60.59 C 13.81 62.97 15.83 65.04 15.41 67.77 L 14.42 67.44 C 14.16 66.99 13.62 66.08 13.35 65.63 L 11.74 65.88 C 11.73 65.31 11.70 64.16 11.69 63.59 C 11.16 63.36 10.09 62.92 9.55 62.70 C 9.15 61.15 8.44 59.82 6.58 60.09 C 6.85 58.68 6.42 57.64 5.27 56.97 C 5.69 56.40 6.52 55.25 6.94 54.68 C 6.86 54.17 6.72 53.13 6.65 52.61 C 5.28 51.98 3.96 51.21 3.13 49.90 C 3.69 48.44 3.52 47.12 2.62 45.95 C 4.03 45.26 4.30 44.43 3.45 43.44 Z" />
<path fill="#6e8f5a" opacity="1.00" d=" M 37.04 76.19 C 37.61 75.61 38.17 75.03 38.73 74.46 C 40.00 75.82 41.26 77.19 42.68 78.41 C 42.12 79.92 42.39 81.50 42.88 82.99 C 41.47 81.39 40.00 79.85 38.56 78.27 C 38.52 78.51 38.44 78.98 38.40 79.21 C 37.11 82.68 38.01 86.28 37.98 89.85 L 36.82 90.00 C 37.21 85.83 38.07 81.57 37.25 77.41 L 37.04 76.19 Z" />
</g>
<g id="#213415ff">
<path fill="#213415" opacity="1.00" d=" M 72.64 37.65 C 74.00 37.07 75.48 37.58 76.86 37.78 C 76.17 39.00 75.46 40.23 74.76 41.45 C 76.65 42.00 78.62 41.67 80.54 41.55 C 80.54 42.26 80.54 42.97 80.54 43.67 C 81.92 43.75 83.56 43.19 84.74 44.16 C 86.71 45.43 86.40 47.98 87.05 49.95 C 87.76 49.92 89.19 49.85 89.90 49.81 C 91.31 51.04 92.58 52.44 92.72 54.40 C 94.04 54.71 95.36 55.02 96.69 55.32 C 96.67 56.25 96.67 57.18 96.65 58.11 C 97.69 58.98 98.73 59.85 99.77 60.72 C 99.60 59.31 99.45 57.89 99.33 56.47 C 101.18 57.67 101.62 60.27 103.76 61.06 C 103.64 59.46 103.49 57.87 103.34 56.27 C 104.73 56.40 105.95 57.08 107.11 57.82 C 106.75 59.34 106.59 60.93 106.01 62.40 C 103.99 64.29 101.85 66.16 99.38 67.44 C 96.97 67.94 94.59 66.82 92.22 66.49 C 90.29 63.07 90.44 58.73 87.94 55.69 C 83.77 51.87 80.11 45.26 73.71 45.79 L 73.60 45.83 C 72.13 44.11 69.95 43.54 67.80 43.27 C 67.96 42.76 68.29 41.75 68.46 41.24 C 69.00 41.06 70.08 40.72 70.62 40.55 C 71.27 39.57 71.89 38.56 72.64 37.65 Z" />
</g>
<g id="#314c21ff">
<path fill="#314c21" opacity="1.00" d=" M 132.37 40.09 C 133.46 38.84 134.64 37.68 135.93 36.64 C 136.52 36.87 137.70 37.32 138.30 37.55 C 137.99 38.69 137.69 39.84 137.39 40.98 C 138.21 42.68 139.03 44.39 139.73 46.14 C 140.61 46.31 141.48 46.50 142.36 46.67 C 141.69 47.44 141.01 48.20 140.34 48.96 C 142.97 49.07 143.79 51.26 143.86 53.60 C 142.92 53.62 141.99 53.63 141.06 53.65 C 142.19 55.36 143.47 57.02 144.02 59.03 C 142.83 58.37 141.68 57.67 140.53 56.94 C 138.36 58.56 136.25 60.29 134.61 62.47 C 133.23 62.71 131.84 62.92 130.44 63.05 C 128.30 62.29 126.11 61.66 123.94 60.98 C 122.68 61.54 121.43 62.13 120.13 62.60 C 117.44 62.20 115.57 64.47 113.12 65.05 C 110.41 65.90 107.53 65.52 104.79 65.14 C 103.29 66.95 100.91 68.69 101.34 71.34 C 101.59 74.02 100.86 76.63 100.66 79.27 C 101.05 81.13 101.49 83.02 100.54 84.81 C 100.44 85.16 100.25 85.85 100.15 86.20 C 99.76 85.72 98.98 84.78 98.59 84.31 C 95.88 87.40 93.58 91.21 89.42 92.51 C 87.17 93.99 84.59 93.27 82.19 92.68 C 78.68 93.82 78.02 97.81 76.67 100.74 C 76.15 99.48 75.62 98.23 75.08 96.99 C 74.75 97.33 74.09 98.01 73.76 98.36 C 66.35 99.02 58.53 98.86 51.95 94.95 C 50.30 93.45 48.88 91.72 47.32 90.14 C 46.11 88.45 45.18 86.59 44.26 84.74 C 47.62 84.13 49.60 86.74 50.77 89.45 C 52.07 89.50 53.38 89.54 54.68 89.57 C 55.97 90.97 57.18 92.51 57.62 94.41 C 59.89 92.99 62.37 93.35 64.69 94.43 C 65.51 93.02 66.33 91.60 67.15 90.19 C 69.86 90.62 72.94 91.05 74.73 88.42 C 73.84 87.07 73.72 85.54 74.05 83.99 C 74.52 84.04 75.46 84.16 75.93 84.22 C 76.03 85.52 76.43 86.72 77.12 87.81 C 78.59 86.17 77.56 84.14 77.20 82.31 C 79.21 83.81 81.63 82.28 83.73 83.41 C 84.93 80.97 88.97 80.62 89.48 83.78 C 92.56 82.78 93.38 78.64 96.70 77.71 C 96.98 75.54 96.21 73.52 95.22 71.63 C 94.49 72.26 93.76 72.89 93.04 73.53 C 91.82 73.07 90.62 72.60 89.42 72.10 C 90.32 70.84 91.29 69.62 92.26 68.41 C 92.25 67.93 92.23 66.97 92.22 66.49 C 94.59 66.82 96.97 67.94 99.38 67.44 C 101.85 66.16 103.99 64.29 106.01 62.40 C 106.59 60.93 106.75 59.34 107.11 57.82 C 107.61 58.12 108.61 58.72 109.10 59.02 C 111.19 57.97 112.65 56.13 113.97 54.27 C 114.79 54.30 115.61 54.33 116.44 54.36 C 116.48 53.51 116.53 52.65 116.58 51.79 C 119.04 51.52 121.52 51.59 123.99 51.74 C 123.08 50.99 122.16 50.24 121.25 49.50 C 122.29 46.71 125.56 46.43 127.92 45.28 C 127.68 46.36 127.45 47.45 127.22 48.53 C 127.85 48.28 128.49 48.03 129.12 47.78 C 129.76 47.96 130.40 48.15 131.04 48.34 C 131.67 46.06 130.87 43.83 130.32 41.63 C 131.80 42.33 132.92 43.53 133.97 44.74 C 133.40 43.20 132.90 41.64 132.37 40.09 Z" />
</g>
<g id="#365425ff">
<path fill="#365425" opacity="1.00" d=" M 40.82 44.89 C 41.89 42.92 42.53 40.73 43.65 38.78 C 44.15 39.12 45.15 39.80 45.65 40.13 C 45.33 41.83 44.61 43.40 43.63 44.81 C 43.81 45.45 44.07 46.06 44.24 46.70 C 43.36 47.39 42.46 48.07 41.56 48.74 C 41.66 50.14 41.80 51.54 41.93 52.94 C 40.99 52.76 40.06 52.61 39.11 52.49 C 38.78 53.30 38.44 54.10 38.10 54.90 C 37.30 54.27 36.50 53.64 35.71 53.01 C 34.28 53.62 32.90 54.34 31.57 55.12 C 32.26 56.57 34.23 58.24 32.80 59.86 C 31.11 60.10 30.87 58.17 30.10 57.13 C 29.85 58.48 29.57 59.82 29.30 61.17 C 28.42 61.56 27.53 61.96 26.65 62.35 C 28.44 64.18 27.80 66.75 27.63 69.04 C 23.31 67.13 19.08 65.01 15.13 62.42 C 15.71 62.19 16.88 61.74 17.46 61.51 C 18.14 61.84 18.83 62.17 19.51 62.50 C 19.76 61.46 20.01 60.42 20.26 59.39 C 21.22 58.94 22.19 58.48 23.15 58.03 C 22.07 57.40 20.98 56.78 19.89 56.15 C 20.40 55.44 20.92 54.73 21.43 54.02 C 20.99 53.25 20.55 52.49 20.11 51.72 C 20.76 51.83 22.08 52.04 22.74 52.14 C 23.61 53.52 24.55 54.85 25.55 56.13 C 25.45 54.88 25.34 53.63 25.22 52.38 C 25.96 52.30 26.71 52.22 27.45 52.13 C 28.07 51.49 28.70 50.85 29.32 50.22 C 34.09 51.60 37.64 47.79 40.82 44.89 Z" />
</g>
<g id="#4c7135ff">
<path fill="#4c7135" opacity="1.00" d=" M 48.83 48.90 C 55.00 46.52 60.94 42.92 67.80 43.27 C 69.95 43.54 72.13 44.11 73.60 45.83 C 73.04 46.04 71.92 46.47 71.36 46.69 C 70.51 46.10 69.66 45.51 68.81 44.93 C 65.74 44.99 62.57 45.09 59.68 46.27 C 57.28 47.01 55.82 49.70 53.11 49.56 C 53.30 50.73 53.49 51.89 53.68 53.06 C 52.36 52.14 51.04 51.23 49.73 50.31 C 47.62 51.83 47.07 54.33 46.72 56.76 C 45.73 56.48 44.74 56.22 43.74 55.99 C 43.55 55.11 43.37 54.23 43.20 53.34 C 46.02 53.06 46.28 49.59 48.83 48.90 Z" />
</g>
<g id="#639541ff">
<path fill="#639541" opacity="1.00" d=" M 59.68 46.27 C 62.57 45.09 65.74 44.99 68.81 44.93 C 69.66 45.51 70.51 46.10 71.36 46.69 C 71.92 46.47 73.04 46.04 73.60 45.83 L 73.71 45.79 C 74.50 46.85 75.30 47.91 76.11 48.96 C 77.50 49.19 78.88 49.44 80.27 49.70 C 80.65 50.61 81.04 51.52 81.43 52.43 C 82.77 52.92 85.81 54.94 83.06 55.80 C 81.65 54.98 80.33 54.02 78.97 53.13 C 79.49 54.42 80.02 55.71 80.56 56.99 C 80.10 57.74 79.63 58.50 79.17 59.25 C 80.15 60.94 81.30 62.52 82.53 64.03 C 81.55 65.04 80.63 66.10 79.78 67.23 C 78.98 67.30 78.18 67.38 77.38 67.45 C 76.62 68.43 75.86 69.41 75.10 70.39 C 72.00 69.26 68.73 68.16 65.39 68.91 C 65.85 69.89 66.31 70.88 66.77 71.87 C 63.38 70.69 60.16 69.10 56.91 67.59 C 56.44 67.75 55.50 68.08 55.03 68.24 C 56.22 68.89 57.42 69.58 58.34 70.61 C 56.71 70.95 55.07 71.23 53.42 71.44 C 52.83 70.10 52.24 68.76 51.62 67.43 C 50.22 66.97 48.84 66.45 47.49 65.85 C 47.79 64.48 47.92 63.09 47.67 61.71 C 48.57 61.10 49.75 60.71 50.09 59.57 C 47.23 59.93 44.78 58.50 42.54 56.90 C 42.84 56.67 43.44 56.22 43.74 55.99 C 44.74 56.22 45.73 56.48 46.72 56.76 C 47.07 54.33 47.62 51.83 49.73 50.31 C 51.04 51.23 52.36 52.14 53.68 53.06 C 53.49 51.89 53.30 50.73 53.11 49.56 C 55.82 49.70 57.28 47.01 59.68 46.27 M 65.98 49.44 C 65.99 50.06 66.01 51.29 66.02 51.91 C 68.02 51.55 70.01 51.16 72.01 50.75 C 71.19 48.87 67.82 50.22 65.98 49.44 M 70.06 53.65 C 71.74 53.91 73.43 54.10 75.13 54.18 C 74.92 52.20 72.25 52.43 70.90 51.64 C 70.69 52.14 70.27 53.15 70.06 53.65 Z" />
</g>
<g id="#4d7735ff">
<path fill="#4d7735" opacity="1.00" d=" M 73.71 45.79 C 80.11 45.26 83.77 51.87 87.94 55.69 C 87.78 57.61 87.98 59.53 88.25 61.44 C 87.17 60.37 86.08 59.31 85.01 58.24 C 85.09 61.49 85.80 64.69 85.86 67.95 C 84.64 67.63 83.45 67.21 82.30 66.67 C 82.08 67.98 81.93 69.31 81.52 70.58 C 80.66 72.68 77.68 71.87 76.64 73.73 C 74.34 76.81 75.92 80.75 75.93 84.22 C 75.46 84.16 74.52 84.04 74.05 83.99 C 73.95 83.31 73.74 81.97 73.64 81.29 C 72.66 81.23 71.70 81.16 70.73 81.09 C 70.33 82.83 69.83 84.55 69.34 86.27 C 68.86 86.41 67.89 86.69 67.41 86.83 C 67.52 85.69 67.63 84.55 67.74 83.42 C 65.87 83.26 63.98 83.55 63.36 85.64 C 62.04 83.97 60.77 82.26 59.59 80.50 C 60.26 79.69 60.93 78.88 61.60 78.06 C 60.25 77.85 58.90 77.63 57.54 77.42 C 57.38 78.04 57.06 79.29 56.90 79.91 C 57.77 80.88 58.64 81.86 59.53 82.83 C 58.95 84.46 58.27 86.05 57.46 87.57 C 56.39 87.75 55.32 87.95 54.26 88.15 C 55.14 87.16 56.02 86.16 56.89 85.15 C 54.97 84.52 52.97 84.65 51.08 85.31 C 49.19 82.84 50.57 78.72 47.39 77.25 C 46.57 78.16 45.75 79.07 44.93 79.97 C 44.36 79.58 43.24 78.80 42.68 78.41 C 41.26 77.19 40.00 75.82 38.73 74.46 C 38.17 75.03 37.61 75.61 37.04 76.19 C 36.99 74.31 37.26 72.41 36.90 70.55 C 36.65 68.57 34.63 66.16 36.44 64.47 C 38.02 62.87 40.54 63.56 42.56 63.23 C 42.41 61.08 40.07 58.49 42.54 56.90 C 44.78 58.50 47.23 59.93 50.09 59.57 C 49.75 60.71 48.57 61.10 47.67 61.71 C 47.92 63.09 47.79 64.48 47.49 65.85 C 48.84 66.45 50.22 66.97 51.62 67.43 C 52.24 68.76 52.83 70.10 53.42 71.44 C 55.07 71.23 56.71 70.95 58.34 70.61 C 57.42 69.58 56.22 68.89 55.03 68.24 C 55.50 68.08 56.44 67.75 56.91 67.59 C 60.16 69.10 63.38 70.69 66.77 71.87 C 66.31 70.88 65.85 69.89 65.39 68.91 C 68.73 68.16 72.00 69.26 75.10 70.39 C 75.86 69.41 76.62 68.43 77.38 67.45 C 78.18 67.38 78.98 67.30 79.78 67.23 C 80.63 66.10 81.55 65.04 82.53 64.03 C 81.30 62.52 80.15 60.94 79.17 59.25 C 79.63 58.50 80.10 57.74 80.56 56.99 C 80.02 55.71 79.49 54.42 78.97 53.13 C 80.33 54.02 81.65 54.98 83.06 55.80 C 85.81 54.94 82.77 52.92 81.43 52.43 C 81.04 51.52 80.65 50.61 80.27 49.70 C 78.88 49.44 77.50 49.19 76.11 48.96 C 75.30 47.91 74.50 46.85 73.71 45.79 M 83.24 57.40 C 81.65 57.91 81.78 63.62 83.81 60.81 C 84.40 59.87 84.92 57.48 83.24 57.40 Z" />
</g>
<g id="#8ab05cff">
<path fill="#8ab05c" opacity="1.00" d=" M 65.98 49.44 C 67.82 50.22 71.19 48.87 72.01 50.75 C 70.01 51.16 68.02 51.55 66.02 51.91 C 66.01 51.29 65.99 50.06 65.98 49.44 Z" />
</g>
<g id="#213616ff">
<path fill="#213616" opacity="1.00" d=" M 39.11 52.49 C 40.06 52.61 40.99 52.76 41.93 52.94 L 43.20 53.34 C 43.37 54.23 43.55 55.11 43.74 55.99 C 43.44 56.22 42.84 56.67 42.54 56.90 C 40.07 58.49 42.41 61.08 42.56 63.23 C 40.54 63.56 38.02 62.87 36.44 64.47 C 34.63 66.16 36.65 68.57 36.90 70.55 C 33.71 71.97 30.71 69.64 27.63 69.04 C 27.80 66.75 28.44 64.18 26.65 62.35 C 27.53 61.96 28.42 61.56 29.30 61.17 C 29.57 59.82 29.85 58.48 30.10 57.13 C 30.87 58.17 31.11 60.10 32.80 59.86 C 34.23 58.24 32.26 56.57 31.57 55.12 C 32.90 54.34 34.28 53.62 35.71 53.01 C 36.50 53.64 37.30 54.27 38.10 54.90 C 38.44 54.10 38.78 53.30 39.11 52.49 Z" />
</g>
<g id="#88af58ff">
<path fill="#88af58" opacity="1.00" d=" M 70.06 53.65 C 70.27 53.15 70.69 52.14 70.90 51.64 C 72.25 52.43 74.92 52.20 75.13 54.18 C 73.43 54.10 71.74 53.91 70.06 53.65 Z" />
</g>
<g id="#537c39ff">
<path fill="#537c39" opacity="1.00" d=" M 145.26 52.69 C 147.41 55.51 149.00 58.64 150.21 61.96 C 152.25 63.84 152.85 66.43 152.91 69.11 C 152.37 70.04 151.84 70.98 151.30 71.91 C 151.49 72.45 151.86 73.51 152.05 74.05 C 150.84 74.67 149.64 75.30 148.44 75.93 C 148.47 74.69 148.51 73.45 148.54 72.22 C 146.82 72.22 145.10 72.22 143.37 72.22 C 144.30 73.08 145.21 73.96 146.13 74.83 C 144.55 77.05 143.04 79.32 141.54 81.60 C 139.84 80.76 138.11 81.36 136.48 82.03 C 137.17 80.14 137.69 78.20 138.09 76.24 C 136.93 76.92 135.78 77.64 134.65 78.37 C 134.69 79.91 134.71 81.45 134.72 82.98 C 131.44 84.29 130.53 87.98 128.85 90.74 C 128.16 90.02 127.49 89.31 126.81 88.60 C 124.79 89.72 122.65 91.04 122.68 93.67 C 121.06 91.43 119.23 89.05 116.41 88.33 C 115.82 88.98 115.23 89.63 114.64 90.28 C 112.74 89.63 110.86 90.29 109.02 90.79 C 106.84 89.95 105.26 87.90 103.90 86.06 C 103.33 83.28 103.99 80.23 102.30 77.74 C 102.76 77.30 103.22 76.87 103.70 76.45 C 104.71 75.93 105.74 75.43 106.78 74.96 C 108.23 77.19 108.61 79.98 110.51 81.94 C 111.21 81.09 111.78 80.14 112.29 79.17 C 114.67 81.09 114.73 84.18 114.71 86.99 C 115.14 86.96 116.01 86.90 116.44 86.87 C 116.54 85.76 116.64 84.65 116.73 83.54 C 118.01 82.37 119.32 81.26 120.69 80.19 C 121.00 81.41 121.30 82.64 121.61 83.87 C 122.48 83.87 123.34 83.78 124.19 83.58 C 126.26 80.75 128.72 77.94 129.01 74.27 C 129.63 73.92 130.87 73.20 131.48 72.84 C 130.40 72.27 129.24 72.03 128.01 72.11 C 128.96 70.31 129.95 68.53 130.96 66.76 C 128.54 66.48 126.16 65.89 123.90 64.97 C 122.60 64.26 121.35 63.45 120.13 62.60 C 121.43 62.13 122.68 61.54 123.94 60.98 C 126.11 61.66 128.30 62.29 130.44 63.05 C 130.73 63.43 131.29 64.19 131.57 64.57 C 132.61 64.58 133.66 64.53 134.71 64.50 C 134.55 65.52 134.40 66.54 134.27 67.57 C 134.35 69.84 136.22 71.45 137.63 73.03 C 138.33 71.97 139.01 70.91 139.70 69.85 C 138.85 68.03 137.98 66.22 137.03 64.45 C 137.80 62.99 138.75 61.63 139.96 60.49 C 140.85 61.04 141.74 61.60 142.63 62.16 C 143.55 61.30 144.51 60.49 145.26 59.48 C 145.60 57.24 145.30 54.94 145.26 52.69 Z" />
</g>
<g id="#3f622dff">
<path fill="#3f622d" opacity="1.00" d=" M 87.94 55.69 C 90.44 58.73 90.29 63.07 92.22 66.49 C 92.23 66.97 92.25 67.93 92.26 68.41 C 91.29 69.62 90.32 70.84 89.42 72.10 C 90.62 72.60 91.82 73.07 93.04 73.53 C 93.76 72.89 94.49 72.26 95.22 71.63 C 96.21 73.52 96.98 75.54 96.70 77.71 C 93.38 78.64 92.56 82.78 89.48 83.78 C 88.97 80.62 84.93 80.97 83.73 83.41 C 81.63 82.28 79.21 83.81 77.20 82.31 C 77.56 84.14 78.59 86.17 77.12 87.81 C 76.43 86.72 76.03 85.52 75.93 84.22 C 75.92 80.75 74.34 76.81 76.64 73.73 C 77.68 71.87 80.66 72.68 81.52 70.58 C 81.93 69.31 82.08 67.98 82.30 66.67 C 83.45 67.21 84.64 67.63 85.86 67.95 C 85.80 64.69 85.09 61.49 85.01 58.24 C 86.08 59.31 87.17 60.37 88.25 61.44 C 87.98 59.53 87.78 57.61 87.94 55.69 Z" />
</g>
<g id="#659047ff">
<path fill="#659047" opacity="1.00" d=" M 83.24 57.40 C 84.92 57.48 84.40 59.87 83.81 60.81 C 81.78 63.62 81.65 57.91 83.24 57.40 Z" />
</g>
<g id="#4f6844ff">
<path fill="#4f6844" opacity="1.00" d=" M 12.92 60.59 C 13.85 60.47 14.77 60.36 15.70 60.24 C 16.14 60.56 17.02 61.19 17.46 61.51 C 16.88 61.74 15.71 62.19 15.13 62.42 C 19.08 65.01 23.31 67.13 27.63 69.04 C 30.71 69.64 33.71 71.97 36.90 70.55 C 37.26 72.41 36.99 74.31 37.04 76.19 L 37.25 77.41 C 35.94 76.75 35.03 75.61 34.17 74.46 C 32.05 74.80 31.26 72.24 29.19 72.57 C 26.91 72.74 24.38 69.69 22.87 72.61 C 21.58 71.36 19.38 70.70 19.29 68.63 C 18.00 68.33 16.70 68.04 15.41 67.77 C 15.83 65.04 13.81 62.97 12.92 60.59 Z" />
</g>
<g id="#5f903fff">
<path fill="#5f903f" opacity="1.00" d=" M 113.12 65.05 C 115.57 64.47 117.44 62.20 120.13 62.60 C 119.59 63.93 119.02 65.26 118.44 66.58 C 120.74 66.46 123.03 66.79 125.06 67.93 C 124.66 66.95 124.28 65.96 123.90 64.97 C 126.16 65.89 128.54 66.48 130.96 66.76 C 129.95 68.53 128.96 70.31 128.01 72.11 C 125.87 73.03 123.60 72.81 121.42 72.19 C 121.51 74.43 121.60 76.66 121.68 78.90 C 122.16 78.88 123.12 78.83 123.60 78.81 C 123.66 77.46 123.74 76.11 123.82 74.77 C 125.55 74.63 127.28 74.50 129.01 74.27 C 128.72 77.94 126.26 80.75 124.19 83.58 C 123.34 83.78 122.48 83.87 121.61 83.87 C 121.30 82.64 121.00 81.41 120.69 80.19 C 119.32 81.26 118.01 82.37 116.73 83.54 C 116.64 84.65 116.54 85.76 116.44 86.87 C 116.01 86.90 115.14 86.96 114.71 86.99 C 114.73 84.18 114.67 81.09 112.29 79.17 C 110.83 77.92 110.05 75.31 112.10 74.21 C 114.04 73.16 113.92 70.65 112.96 68.96 C 112.36 69.01 111.16 69.11 110.56 69.15 C 110.45 69.94 110.35 70.72 110.24 71.50 C 109.22 71.71 108.21 71.90 107.19 72.09 C 107.08 72.81 106.88 74.24 106.78 74.96 C 105.74 75.43 104.71 75.93 103.70 76.45 C 102.93 73.62 104.77 71.04 106.71 69.18 C 106.13 67.80 105.49 66.45 104.79 65.14 C 107.53 65.52 110.41 65.90 113.12 65.05 Z" />
</g>
<g id="#7fa756ff">
<path fill="#7fa756" opacity="1.00" d=" M 120.13 62.60 C 121.35 63.45 122.60 64.26 123.90 64.97 C 124.28 65.96 124.66 66.95 125.06 67.93 C 123.03 66.79 120.74 66.46 118.44 66.58 C 119.02 65.26 119.59 63.93 120.13 62.60 Z" />
</g>
<g id="#436531ff">
<path fill="#436531" opacity="1.00" d=" M 101.34 71.34 C 100.91 68.69 103.29 66.95 104.79 65.14 C 105.49 66.45 106.13 67.80 106.71 69.18 C 104.77 71.04 102.93 73.62 103.70 76.45 C 103.22 76.87 102.76 77.30 102.30 77.74 C 103.99 80.23 103.33 83.28 103.90 86.06 C 105.26 87.90 106.84 89.95 109.02 90.79 C 110.86 90.29 112.74 89.63 114.64 90.28 C 115.23 89.63 115.82 88.98 116.41 88.33 C 119.23 89.05 121.06 91.43 122.68 93.67 C 122.65 91.04 124.79 89.72 126.81 88.60 C 127.49 89.31 128.16 90.02 128.85 90.74 C 130.53 87.98 131.44 84.29 134.72 82.98 C 134.71 81.45 134.69 79.91 134.65 78.37 C 135.78 77.64 136.93 76.92 138.09 76.24 C 137.69 78.20 137.17 80.14 136.48 82.03 C 138.11 81.36 139.84 80.76 141.54 81.60 C 143.04 79.32 144.55 77.05 146.13 74.83 C 145.21 73.96 144.30 73.08 143.37 72.22 C 145.10 72.22 146.82 72.22 148.54 72.22 C 148.51 73.45 148.47 74.69 148.44 75.93 C 149.64 75.30 150.84 74.67 152.05 74.05 C 153.27 76.40 154.76 78.59 155.98 80.95 C 156.16 82.49 157.21 84.49 156.04 85.81 C 153.49 85.45 150.87 86.17 148.37 85.36 C 148.02 88.86 147.32 92.33 147.93 95.86 C 147.62 96.07 147.01 96.48 146.70 96.69 C 146.36 96.04 145.69 94.75 145.35 94.10 C 144.81 94.70 144.28 95.30 143.75 95.90 C 145.58 99.04 146.31 102.78 146.37 106.38 C 144.71 103.95 143.29 101.02 140.05 100.54 C 140.95 100.02 141.86 99.50 142.76 98.98 C 142.69 97.81 142.51 96.67 142.31 95.53 C 140.90 96.23 139.37 96.64 137.78 96.60 C 137.51 97.61 137.56 98.96 136.22 99.12 C 136.27 97.34 136.37 95.57 136.43 93.79 C 134.79 94.53 133.73 96.04 132.55 97.33 C 132.60 95.63 132.67 93.93 132.76 92.23 C 131.24 94.51 129.81 96.87 128.86 99.46 C 126.19 98.29 128.38 95.46 129.58 93.98 C 128.70 94.12 127.82 94.27 126.94 94.43 L 126.65 94.77 C 125.88 95.66 125.12 96.55 124.37 97.45 C 123.94 96.70 123.07 95.19 122.64 94.44 C 121.17 96.15 122.33 99.10 119.87 100.06 C 119.56 98.39 119.52 96.70 119.65 95.02 C 117.73 94.42 115.72 94.25 113.72 94.18 C 113.64 94.98 113.56 95.78 113.48 96.58 C 111.08 96.51 108.69 96.46 106.29 96.56 C 105.17 95.21 103.53 93.97 103.49 92.07 C 103.50 89.33 101.63 87.18 100.54 84.81 C 101.49 83.02 101.05 81.13 100.66 79.27 C 100.86 76.63 101.59 74.02 101.34 71.34 Z" />
</g>
<g id="#608848ff">
<path fill="#608848" opacity="1.00" d=" M 134.27 67.57 C 135.46 66.79 136.40 65.72 137.03 64.45 C 137.98 66.22 138.85 68.03 139.70 69.85 C 139.01 70.91 138.33 71.97 137.63 73.03 C 136.22 71.45 134.35 69.84 134.27 67.57 Z" />
</g>
<g id="#627e4fff">
<path fill="#627e4f" opacity="1.00" d=" M 152.91 69.11 C 153.77 68.77 154.62 68.41 155.47 68.02 C 158.12 69.78 155.57 73.14 157.75 75.12 C 157.19 75.41 156.05 76.01 155.49 76.31 C 156.86 77.91 157.03 79.46 155.98 80.95 C 154.76 78.59 153.27 76.40 152.05 74.05 C 151.86 73.51 151.49 72.45 151.30 71.91 C 151.84 70.98 152.37 70.04 152.91 69.11 Z" />
</g>
<g id="#6d9d45ff">
<path fill="#6d9d45" opacity="1.00" d=" M 110.56 69.15 C 111.16 69.11 112.36 69.01 112.96 68.96 C 113.92 70.65 114.04 73.16 112.10 74.21 C 110.05 75.31 110.83 77.92 112.29 79.17 C 111.78 80.14 111.21 81.09 110.51 81.94 C 108.61 79.98 108.23 77.19 106.78 74.96 C 106.88 74.24 107.08 72.81 107.19 72.09 C 108.21 71.90 109.22 71.71 110.24 71.50 C 110.35 70.72 110.45 69.94 110.56 69.15 Z" />
</g>
<g id="#729f49ff">
<path fill="#729f49" opacity="1.00" d=" M 121.42 72.19 C 123.60 72.81 125.87 73.03 128.01 72.11 C 129.24 72.03 130.40 72.27 131.48 72.84 C 130.87 73.20 129.63 73.92 129.01 74.27 C 127.28 74.50 125.55 74.63 123.82 74.77 C 123.74 76.11 123.66 77.46 123.60 78.81 C 123.12 78.83 122.16 78.88 121.68 78.90 C 121.60 76.66 121.51 74.43 121.42 72.19 Z" />
</g>
<g id="#46692eff">
<path fill="#46692e" opacity="1.00" d=" M 47.39 77.25 C 50.57 78.72 49.19 82.84 51.08 85.31 C 52.97 84.65 54.97 84.52 56.89 85.15 C 56.02 86.16 55.14 87.16 54.26 88.15 C 55.32 87.95 56.39 87.75 57.46 87.57 C 58.27 86.05 58.95 84.46 59.53 82.83 C 58.64 81.86 57.77 80.88 56.90 79.91 C 57.06 79.29 57.38 78.04 57.54 77.42 C 58.90 77.63 60.25 77.85 61.60 78.06 C 60.93 78.88 60.26 79.69 59.59 80.50 C 60.77 82.26 62.04 83.97 63.36 85.64 C 63.98 83.55 65.87 83.26 67.74 83.42 C 67.63 84.55 67.52 85.69 67.41 86.83 C 67.89 86.69 68.86 86.41 69.34 86.27 C 69.83 84.55 70.33 82.83 70.73 81.09 C 71.70 81.16 72.66 81.23 73.64 81.29 C 73.74 81.97 73.95 83.31 74.05 83.99 C 73.72 85.54 73.84 87.07 74.73 88.42 C 72.94 91.05 69.86 90.62 67.15 90.19 C 66.33 91.60 65.51 93.02 64.69 94.43 C 62.37 93.35 59.89 92.99 57.62 94.41 C 57.18 92.51 55.97 90.97 54.68 89.57 C 53.38 89.54 52.07 89.50 50.77 89.45 C 49.60 86.74 47.62 84.13 44.26 84.74 C 43.81 84.15 43.35 83.56 42.88 82.99 C 42.39 81.50 42.12 79.92 42.68 78.41 C 43.24 78.80 44.36 79.58 44.93 79.97 C 45.75 79.07 46.57 78.16 47.39 77.25 Z" />
</g>
<g id="#6eb840ff">
<path fill="#6eb840" opacity="1.00" d=" M 38.56 78.27 C 40.00 79.85 41.47 81.39 42.88 82.99 C 43.35 83.56 43.81 84.15 44.26 84.74 C 45.18 86.59 46.11 88.45 47.32 90.14 C 47.72 91.41 48.06 92.69 48.34 94.00 C 48.24 94.47 48.03 95.40 47.92 95.87 C 47.19 95.43 46.47 94.99 45.74 94.55 C 44.17 95.58 42.04 96.26 41.38 98.20 C 40.03 101.58 39.05 105.11 38.19 108.65 L 37.00 108.83 C 38.44 103.74 39.58 98.54 41.89 93.75 C 43.38 90.85 42.71 87.43 41.53 84.55 C 40.83 82.59 39.65 80.86 38.40 79.21 C 38.44 78.98 38.52 78.51 38.56 78.27 Z" />
</g>
<g id="#bbe273ff">
<path fill="#bbe273" opacity="1.00" d=" M 38.40 79.21 C 39.65 80.86 40.83 82.59 41.53 84.55 C 40.35 87.74 40.84 91.33 39.27 94.39 C 38.28 96.54 37.03 98.56 35.76 100.57 C 35.48 100.17 34.93 99.38 34.65 98.99 C 34.37 98.69 33.81 98.10 33.53 97.80 C 35.73 96.00 36.70 92.91 36.82 90.00 L 37.98 89.85 C 38.01 86.28 37.11 82.68 38.40 79.21 Z" />
</g>
<g id="#203914ff">
<path fill="#203914" opacity="1.00" d=" M 89.42 92.51 C 93.58 91.21 95.88 87.40 98.59 84.31 C 98.98 84.78 99.76 85.72 100.15 86.20 C 99.79 88.81 99.03 91.80 100.97 94.01 C 102.82 96.21 102.56 99.10 102.57 101.77 C 104.87 103.12 107.31 101.04 109.60 102.23 C 111.27 102.93 113.00 102.07 114.63 101.66 C 114.92 101.14 115.49 100.11 115.78 99.59 C 117.14 99.75 118.50 99.93 119.87 100.06 C 122.33 99.10 121.17 96.15 122.64 94.44 C 123.07 95.19 123.94 96.70 124.37 97.45 C 125.12 96.55 125.88 95.66 126.65 94.77 C 126.36 97.19 126.13 99.61 125.75 102.01 C 126.72 101.43 127.71 100.84 128.69 100.25 C 127.73 102.16 126.87 104.22 127.91 106.31 C 127.40 106.38 126.38 106.54 125.87 106.62 C 121.70 106.59 117.46 106.83 113.39 105.73 C 111.06 105.04 108.64 105.36 106.26 105.49 C 103.77 105.10 102.05 106.90 100.44 108.50 C 99.10 107.41 97.77 106.30 96.44 105.20 C 96.83 104.15 97.23 103.10 97.64 102.06 C 96.02 100.18 93.42 100.49 91.31 101.23 C 91.50 103.66 91.33 106.18 89.46 107.97 C 89.45 105.93 89.46 103.89 89.49 101.85 C 87.56 103.71 85.48 105.45 82.99 106.50 L 82.00 105.95 C 80.46 104.35 78.84 102.82 76.85 101.78 C 76.81 101.52 76.71 101.00 76.67 100.74 C 78.02 97.81 78.68 93.82 82.19 92.68 C 84.59 93.27 87.17 93.99 89.42 92.51 M 119.74 100.45 C 119.16 101.71 117.16 103.80 119.23 104.76 C 120.93 105.00 122.60 104.31 124.26 104.06 C 124.66 101.89 121.73 100.04 119.74 100.45 Z" />
</g>
<g id="#afd25fff">
<path fill="#afd25f" opacity="1.00" d=" M 41.53 84.55 C 42.71 87.43 43.38 90.85 41.89 93.75 C 39.58 98.54 38.44 103.74 37.00 108.83 C 35.91 112.00 34.69 115.14 33.25 118.17 C 30.63 120.25 27.44 121.70 25.42 124.46 C 24.02 126.12 22.80 128.33 20.41 128.61 C 24.05 121.63 29.67 115.24 30.22 107.07 C 30.17 104.40 29.23 101.65 30.75 99.19 C 29.93 102.44 30.25 105.79 30.65 109.07 C 33.37 106.29 33.26 102.24 34.65 98.99 C 34.93 99.38 35.48 100.17 35.76 100.57 C 37.03 98.56 38.28 96.54 39.27 94.39 C 40.84 91.33 40.35 87.74 41.53 84.55 Z" />
</g>
<g id="#355520ff">
<path fill="#355520" opacity="1.00" d=" M 100.15 86.20 C 100.25 85.85 100.44 85.16 100.54 84.81 C 101.63 87.18 103.50 89.33 103.49 92.07 C 103.53 93.97 105.17 95.21 106.29 96.56 C 108.69 96.46 111.08 96.51 113.48 96.58 C 113.56 95.78 113.64 94.98 113.72 94.18 C 115.72 94.25 117.73 94.42 119.65 95.02 C 119.52 96.70 119.56 98.39 119.87 100.06 C 118.50 99.93 117.14 99.75 115.78 99.59 C 115.49 100.11 114.92 101.14 114.63 101.66 C 113.00 102.07 111.27 102.93 109.60 102.23 C 107.31 101.04 104.87 103.12 102.57 101.77 C 102.56 99.10 102.82 96.21 100.97 94.01 C 99.03 91.80 99.79 88.81 100.15 86.20 Z" />
</g>
<g id="#596f4fff">
<path fill="#596f4f" opacity="1.00" d=" M 148.37 85.36 C 150.87 86.17 153.49 85.45 156.04 85.81 C 155.90 87.22 155.11 87.89 153.68 87.82 C 152.77 89.01 152.01 90.35 150.61 91.05 C 150.88 91.52 151.43 92.47 151.71 92.95 C 151.18 93.35 150.12 94.15 149.60 94.55 C 149.61 96.40 148.96 98.14 148.37 99.87 C 149.71 101.40 148.87 103.46 149.83 105.12 C 150.76 106.51 149.99 108.05 149.61 109.47 C 149.22 111.52 149.31 113.67 148.59 115.65 C 147.76 116.42 147.35 117.37 147.36 118.51 C 146.79 118.70 145.67 119.09 145.10 119.28 C 145.17 119.94 145.30 121.25 145.36 121.91 C 143.59 123.41 141.05 123.69 139.52 125.49 C 138.32 127.57 135.02 125.15 134.59 127.99 C 133.95 127.80 132.67 127.43 132.03 127.25 C 132.37 126.21 132.63 125.15 132.91 124.10 L 133.45 123.71 C 136.62 123.28 140.80 123.28 142.50 120.01 C 143.71 117.47 145.64 115.43 147.33 113.22 C 147.26 110.93 146.03 108.73 146.37 106.38 C 146.31 102.78 145.58 99.04 143.75 95.90 C 144.28 95.30 144.81 94.70 145.35 94.10 C 145.69 94.75 146.36 96.04 146.70 96.69 C 147.01 96.48 147.62 96.07 147.93 95.86 C 147.32 92.33 148.02 88.86 148.37 85.36 Z" />
</g>
<g id="#2b7814ff">
<path fill="#2b7814" opacity="1.00" d=" M 47.32 90.14 C 48.88 91.72 50.30 93.45 51.95 94.95 C 58.53 98.86 66.35 99.02 73.76 98.36 C 72.71 100.14 71.72 101.97 70.64 103.74 C 66.80 103.34 63.00 104.18 59.18 104.33 C 56.88 102.82 55.48 100.28 53.66 98.26 C 52.23 98.35 50.80 98.43 49.38 98.51 C 49.04 97.00 48.69 95.50 48.34 94.00 C 48.06 92.69 47.72 91.41 47.32 90.14 Z" />
</g>
<g id="#314b24ff">
<path fill="#314b24" opacity="1.00" d=" M 132.76 92.23 C 132.67 93.93 132.60 95.63 132.55 97.33 C 133.73 96.04 134.79 94.53 136.43 93.79 C 136.37 95.57 136.27 97.34 136.22 99.12 C 137.56 98.96 137.51 97.61 137.78 96.60 C 139.37 96.64 140.90 96.23 142.31 95.53 C 142.51 96.67 142.69 97.81 142.76 98.98 C 141.86 99.50 140.95 100.02 140.05 100.54 C 143.29 101.02 144.71 103.95 146.37 106.38 C 146.03 108.73 147.26 110.93 147.33 113.22 C 145.64 115.43 143.71 117.47 142.50 120.01 C 141.71 117.72 141.45 113.64 137.99 114.53 C 138.51 115.39 139.03 116.24 139.55 117.10 C 137.05 118.84 134.83 120.96 133.45 123.71 L 132.91 124.10 C 132.12 124.66 131.35 125.23 130.58 125.80 C 131.07 123.47 130.39 121.22 129.32 119.16 C 130.59 119.95 131.87 120.72 133.15 121.50 C 135.58 118.99 135.97 115.32 138.09 112.61 C 138.94 113.24 139.87 113.76 140.86 114.15 C 140.82 112.99 140.78 111.84 140.74 110.69 C 138.88 110.30 137.42 109.09 135.88 108.06 C 133.16 107.73 130.37 107.66 127.91 106.31 C 126.87 104.22 127.73 102.16 128.69 100.25 C 127.71 100.84 126.72 101.43 125.75 102.01 C 126.13 99.61 126.36 97.19 126.65 94.77 L 126.94 94.43 C 127.82 94.27 128.70 94.12 129.58 93.98 C 128.38 95.46 126.19 98.29 128.86 99.46 C 129.81 96.87 131.24 94.51 132.76 92.23 Z" />
</g>
<g id="#58a513ff">
<path fill="#58a513" opacity="1.00" d=" M 41.38 98.20 C 42.04 96.26 44.17 95.58 45.74 94.55 C 46.47 94.99 47.19 95.43 47.92 95.87 C 46.94 100.33 43.54 103.63 41.90 107.80 C 40.89 110.33 40.15 112.97 39.67 115.65 C 39.16 116.92 40.01 117.92 40.86 118.77 C 40.06 121.89 38.76 124.87 38.16 128.05 C 38.37 129.73 39.72 130.88 40.79 132.08 C 44.77 128.19 47.62 123.16 49.10 117.81 C 51.25 113.17 55.38 107.66 52.40 102.54 C 51.12 102.09 49.90 103.31 48.70 103.63 C 49.47 102.00 50.59 100.58 52.00 99.45 C 54.90 101.25 56.10 104.79 55.46 108.06 C 54.62 113.00 54.33 118.00 54.11 123.01 C 54.04 126.87 52.28 130.34 50.99 133.88 C 54.16 132.52 56.52 129.93 59.41 128.12 C 56.35 134.29 48.89 136.47 45.48 142.39 C 43.22 146.55 41.01 150.79 39.66 155.36 L 39.51 155.82 C 32.07 152.92 25.03 148.95 19.22 143.41 C 24.98 139.65 28.13 133.47 31.81 127.89 C 34.64 121.74 38.86 115.78 38.19 108.65 C 39.05 105.11 40.03 101.58 41.38 98.20 Z" />
</g>
<g id="#409414ff">
<path fill="#409414" opacity="1.00" d=" M 47.92 95.87 C 48.03 95.40 48.24 94.47 48.34 94.00 C 48.69 95.50 49.04 97.00 49.38 98.51 C 50.80 98.43 52.23 98.35 53.66 98.26 C 55.48 100.28 56.88 102.82 59.18 104.33 C 63.00 104.18 66.80 103.34 70.64 103.74 C 68.92 106.75 66.86 109.60 65.61 112.85 C 68.81 110.51 71.41 107.49 74.22 104.72 C 74.22 107.18 73.41 109.51 72.40 111.72 C 73.10 111.84 74.52 112.07 75.22 112.19 L 74.92 112.90 C 71.38 116.00 67.73 119.05 64.95 122.89 C 63.51 125.03 61.54 126.70 59.41 128.12 C 56.52 129.93 54.16 132.52 50.99 133.88 C 52.28 130.34 54.04 126.87 54.11 123.01 C 54.33 118.00 54.62 113.00 55.46 108.06 C 56.10 104.79 54.90 101.25 52.00 99.45 C 50.59 100.58 49.47 102.00 48.70 103.63 C 46.39 108.10 44.26 112.65 41.79 117.03 C 41.56 117.47 41.09 118.33 40.86 118.77 C 40.01 117.92 39.16 116.92 39.67 115.65 C 40.15 112.97 40.89 110.33 41.90 107.80 C 43.54 103.63 46.94 100.33 47.92 95.87 Z" />
</g>
<g id="#5f9d1bf9">
<path fill="#5f9d1b" opacity="0.98" d=" M 30.75 99.19 C 31.45 98.85 32.84 98.15 33.53 97.80 C 33.81 98.10 34.37 98.69 34.65 98.99 C 33.26 102.24 33.37 106.29 30.65 109.07 C 30.25 105.79 29.93 102.44 30.75 99.19 Z" />
</g>
<g id="#395b25ff">
<path fill="#395b25" opacity="1.00" d=" M 119.74 100.45 C 121.73 100.04 124.66 101.89 124.26 104.06 C 122.60 104.31 120.93 105.00 119.23 104.76 C 117.16 103.80 119.16 101.71 119.74 100.45 Z" />
</g>
<g id="#335426ff">
<path fill="#335426" opacity="1.00" d=" M 91.31 101.23 C 93.42 100.49 96.02 100.18 97.64 102.06 C 97.23 103.10 96.83 104.15 96.44 105.20 C 97.77 106.30 99.10 107.41 100.44 108.50 C 102.05 106.90 103.77 105.10 106.26 105.49 C 104.16 106.90 103.10 109.04 103.11 111.55 C 101.80 111.71 100.51 111.91 99.24 112.23 C 97.76 112.38 96.28 112.39 94.79 112.26 C 93.00 110.62 90.64 109.04 88.10 109.70 C 87.32 109.03 86.53 108.37 85.73 107.71 C 84.83 107.29 83.90 106.92 82.99 106.50 C 85.48 105.45 87.56 103.71 89.49 101.85 C 89.46 103.89 89.45 105.93 89.46 107.97 C 91.33 106.18 91.50 103.66 91.31 101.23 Z" />
</g>
<g id="#89c632ff">
<path fill="#89c632" opacity="1.00" d=" M 48.70 103.63 C 49.90 103.31 51.12 102.09 52.40 102.54 C 55.38 107.66 51.25 113.17 49.10 117.81 C 47.06 119.68 45.58 123.16 42.31 122.58 C 42.11 120.73 41.93 118.88 41.79 117.03 C 44.26 112.65 46.39 108.10 48.70 103.63 Z" />
</g>
<g id="#2e7319ff">
<path fill="#2e7319" opacity="1.00" d=" M 76.85 101.78 C 78.84 102.82 80.46 104.35 82.00 105.95 C 79.06 107.13 77.22 109.87 75.22 112.19 C 74.52 112.07 73.10 111.84 72.40 111.72 C 73.41 109.51 74.22 107.18 74.22 104.72 C 75.12 103.76 75.98 102.76 76.85 101.78 Z" />
</g>
<g id="#59843bff">
<path fill="#59843b" opacity="1.00" d=" M 106.26 105.49 C 108.64 105.36 111.06 105.04 113.39 105.73 C 117.46 106.83 121.70 106.59 125.87 106.62 C 126.24 107.11 126.99 108.11 127.36 108.61 C 128.79 108.82 130.23 109.05 131.66 109.27 C 131.01 111.09 130.30 112.88 129.56 114.66 C 128.69 113.83 127.81 113.00 126.95 112.17 C 126.54 112.33 125.72 112.64 125.31 112.80 C 125.90 113.63 126.51 114.45 127.12 115.28 C 126.91 115.74 126.49 116.65 126.28 117.11 C 123.20 118.72 120.10 120.27 117.09 122.01 C 118.26 119.89 119.60 117.86 121.07 115.93 C 120.47 114.59 119.72 113.33 118.80 112.19 C 118.38 112.28 117.55 112.47 117.13 112.56 C 117.68 113.43 118.24 114.29 118.81 115.16 C 118.06 117.39 115.76 118.02 113.74 118.62 C 113.46 117.43 113.15 116.24 112.82 115.06 C 110.82 115.70 109.43 117.36 107.78 118.56 C 106.01 119.35 106.56 116.45 106.57 115.60 C 104.48 114.03 101.73 113.82 99.21 113.53 C 99.22 113.21 99.23 112.55 99.24 112.23 C 100.51 111.91 101.80 111.71 103.11 111.55 C 103.10 109.04 104.16 106.90 106.26 105.49 Z" />
</g>
<g id="#6cac39ff">
<path fill="#6cac39" opacity="1.00" d=" M 75.22 112.19 C 77.22 109.87 79.06 107.13 82.00 105.95 L 82.99 106.50 C 83.90 106.92 84.83 107.29 85.73 107.71 C 82.73 107.76 80.90 110.18 78.83 111.97 C 78.46 112.25 77.72 112.82 77.35 113.11 C 76.74 113.06 75.53 112.95 74.92 112.90 L 75.22 112.19 Z" />
</g>
<g id="#496c34ff">
<path fill="#496c34" opacity="1.00" d=" M 127.91 106.31 C 130.37 107.66 133.16 107.73 135.88 108.06 C 137.42 109.09 138.88 110.30 140.74 110.69 C 140.78 111.84 140.82 112.99 140.86 114.15 C 139.87 113.76 138.94 113.24 138.09 112.61 C 135.97 115.32 135.58 118.99 133.15 121.50 C 131.87 120.72 130.59 119.95 129.32 119.16 C 130.39 121.22 131.07 123.47 130.58 125.80 C 131.35 125.23 132.12 124.66 132.91 124.10 C 132.63 125.15 132.37 126.21 132.03 127.25 C 131.51 127.70 130.48 128.61 129.96 129.07 C 129.68 128.55 129.13 127.53 128.86 127.02 C 125.99 122.02 118.89 122.63 114.70 125.57 L 114.06 125.07 C 113.22 122.13 112.26 118.62 108.47 118.74 L 107.78 118.56 C 109.43 117.36 110.82 115.70 112.82 115.06 C 113.15 116.24 113.46 117.43 113.74 118.62 C 115.76 118.02 118.06 117.39 118.81 115.16 C 118.24 114.29 117.68 113.43 117.13 112.56 C 117.55 112.47 118.38 112.28 118.80 112.19 C 119.72 113.33 120.47 114.59 121.07 115.93 C 119.60 117.86 118.26 119.89 117.09 122.01 C 120.10 120.27 123.20 118.72 126.28 117.11 C 126.49 116.65 126.91 115.74 127.12 115.28 C 126.51 114.45 125.90 113.63 125.31 112.80 C 125.72 112.64 126.54 112.33 126.95 112.17 C 127.81 113.00 128.69 113.83 129.56 114.66 C 130.30 112.88 131.01 111.09 131.66 109.27 C 130.23 109.05 128.79 108.82 127.36 108.61 C 126.99 108.11 126.24 107.11 125.87 106.62 C 126.38 106.54 127.40 106.38 127.91 106.31 Z" />
</g>
<g id="#a2ce6eff">
<path fill="#a2ce6e" opacity="1.00" d=" M 78.83 111.97 C 80.90 110.18 82.73 107.76 85.73 107.71 C 86.53 108.37 87.32 109.03 88.10 109.70 C 84.73 112.15 82.08 115.48 78.79 118.06 C 78.50 116.03 78.56 113.99 78.83 111.97 Z" />
</g>
<g id="#70ba13ff">
<path fill="#70ba13" opacity="1.00" d=" M 37.00 108.83 L 38.19 108.65 C 38.86 115.78 34.64 121.74 31.81 127.89 C 28.13 133.47 24.98 139.65 19.22 143.41 C 18.75 142.90 18.27 142.39 17.78 141.90 C 19.72 137.44 23.00 133.81 26.16 130.19 C 29.31 126.71 31.31 122.40 33.25 118.17 C 34.69 115.14 35.91 112.00 37.00 108.83 Z" />
</g>
<g id="#a6df48ff">
<path fill="#a6df48" opacity="1.00" d=" M 77.35 113.11 C 77.72 112.82 78.46 112.25 78.83 111.97 C 78.56 113.99 78.50 116.03 78.79 118.06 L 78.80 118.19 C 75.65 121.20 72.27 123.94 69.11 126.93 C 68.66 126.21 67.77 124.76 67.33 124.04 C 70.51 120.24 74.49 117.18 77.35 113.11 Z" />
</g>
<g id="#74bd13ff">
<path fill="#74bd13" opacity="1.00" d=" M 64.95 122.89 C 67.73 119.05 71.38 116.00 74.92 112.90 C 75.53 112.95 76.74 113.06 77.35 113.11 C 74.49 117.18 70.51 120.24 67.33 124.04 C 67.77 124.76 68.66 126.21 69.11 126.93 C 69.73 127.88 69.88 128.92 69.56 130.06 C 64.82 132.18 61.16 135.97 57.59 139.62 C 54.37 138.23 50.71 140.60 49.48 143.62 C 47.50 147.96 45.51 152.53 45.52 157.38 C 43.56 156.71 41.38 156.60 39.66 155.36 C 41.01 150.79 43.22 146.55 45.48 142.39 C 48.89 136.47 56.35 134.29 59.41 128.12 C 61.54 126.70 63.51 125.03 64.95 122.89 Z" />
</g>
<g id="#4b6b3bff">
<path fill="#4b6b3b" opacity="1.00" d=" M 137.99 114.53 C 141.45 113.64 141.71 117.72 142.50 120.01 C 140.80 123.28 136.62 123.28 133.45 123.71 C 134.83 120.96 137.05 118.84 139.55 117.10 C 139.03 116.24 138.51 115.39 137.99 114.53 Z" />
</g>
<g id="#75be16ff">
<path fill="#75be16" opacity="1.00" d=" M 40.86 118.77 C 41.09 118.33 41.56 117.47 41.79 117.03 C 41.93 118.88 42.11 120.73 42.31 122.58 C 45.58 123.16 47.06 119.68 49.10 117.81 C 47.62 123.16 44.77 128.19 40.79 132.08 C 39.72 130.88 38.37 129.73 38.16 128.05 C 38.76 124.87 40.06 121.89 40.86 118.77 Z" />
</g>
<g id="#96cc3aff">
<path fill="#96cc3a" opacity="1.00" d=" M 25.42 124.46 C 27.44 121.70 30.63 120.25 33.25 118.17 C 31.31 122.40 29.31 126.71 26.16 130.19 C 23.00 133.81 19.72 137.44 17.78 141.90 C 16.36 140.84 15.35 139.38 14.31 137.98 C 16.11 134.75 18.46 131.86 20.30 128.64 L 20.41 128.61 C 22.80 128.33 24.02 126.12 25.42 124.46 Z" />
</g>
<g id="#657e55f2">
<path fill="#657e55" opacity="0.95" d=" M 108.47 118.74 C 112.26 118.62 113.22 122.13 114.06 125.07 C 111.82 126.39 110.54 124.34 110.73 122.27 C 108.71 122.10 108.12 120.56 108.47 118.74 Z" />
</g>
<g id="#617654ff">
<path fill="#617654" opacity="1.00" d=" M 114.70 125.57 C 118.89 122.63 125.99 122.02 128.86 127.02 C 128.27 127.71 127.67 128.39 127.07 129.06 C 126.01 128.51 124.96 127.97 123.90 127.44 C 121.89 128.26 119.96 127.69 118.13 126.78 C 116.96 128.25 114.82 127.92 114.24 126.08 L 114.70 125.57 Z" />
</g>
<g id="#9dd935ff">
<path fill="#9dd935" opacity="1.00" d=" M 49.48 143.62 C 50.71 140.60 54.37 138.23 57.59 139.62 C 52.94 144.82 50.40 151.39 47.24 157.49 L 45.52 157.38 C 45.51 152.53 47.50 147.96 49.48 143.62 Z" />
</g>
</svg>
